<?xml version="1.0" encoding="UTF-8"?>
<svg id="Layer_2" data-name="Layer 2" xmlns="http://www.w3.org/2000/svg" viewBox="0 0 223 160.18">
  <defs>
    <style>
      .cls-1 {
        fill: #f5bf00;
      }
    </style>
  </defs>
  <g id="Layer_1-2" data-name="Layer 1">
    <g>
      <g>
        <path class="cls-1" d="m85.15,88.68c1.13,1.12,2.69,1.88,4.28,2.01,1.61.13,3.27-.26,4.61-1.17.37-.24.71-.53,1.02-.84h0s19.2-19.21,19.2-19.21c2.75-2.75,2.75-7.2,0-9.94-2.75-2.75-7.2-2.75-9.94,0l-7.21,7.21V7.03c0-3.88-3.15-7.03-7.03-7.03s-7.03,3.15-7.03,7.03v59.7l-7.39-7.39c-2.75-2.75-7.2-2.75-9.94,0-2.75,2.75-2.75,7.2,0,9.94l19.4,19.4s0,0,.02,0Z"/>
        <path class="cls-1" d="m137.85,2.04c-1.13-1.12-2.69-1.88-4.28-2.01-1.61-.13-3.27.26-4.61,1.17-.37.24-.71.53-1.02.84h0s-19.2,19.21-19.2,19.21c-2.75,2.75-2.75,7.2,0,9.94,2.75,2.75,7.2,2.75,9.94,0l7.21-7.21v59.7c0,3.88,3.15,7.03,7.03,7.03s7.03-3.15,7.03-7.03V23.99l7.39,7.39c2.75,2.75,7.2,2.75,9.94,0,2.75-2.75,2.75-7.2,0-9.94l-19.4-19.4s0,0-.02,0Z"/>
      </g>
      <g>
        <path class="cls-1" d="m5.73,109.75c3.19-2.81,7.52-4.21,12.99-4.21,3.63,0,6.74.63,9.32,1.88,2.59,1.26,4.55,2.98,5.88,5.16,1.33,2.17,2,4.62,2,7.33,0,3.19-.8,5.79-2.4,7.8s-3.46,3.37-5.59,4.1v.29c2.76.92,4.94,2.44,6.53,4.57,1.59,2.13,2.39,4.87,2.39,8.2,0,3-.69,5.65-2.07,7.94-1.38,2.3-3.38,4.1-6.02,5.41-2.63,1.31-5.77,1.96-9.4,1.96-5.81,0-10.44-1.43-13.9-4.28-3.46-2.86-5.29-7.16-5.48-12.92h12.05c.05,2.13.65,3.81,1.81,5.04,1.16,1.23,2.85,1.85,5.08,1.85,1.89,0,3.35-.54,4.39-1.64,1.04-1.09,1.56-2.53,1.56-4.32,0-2.32-.74-4-2.21-5.04s-3.83-1.56-7.07-1.56h-2.32v-10.09h2.32c2.47,0,4.46-.43,5.99-1.27s2.29-2.36,2.29-4.54c0-1.74-.48-3.09-1.45-4.06s-2.3-1.45-3.99-1.45c-1.84,0-3.21.56-4.1,1.67-.9,1.11-1.42,2.49-1.56,4.13H.66c.19-5.17,1.88-9.17,5.08-11.97Z"/>
        <path class="cls-1" d="m48.95,112.87c3.22-4.79,8.4-7.19,15.57-7.19s12.35,2.4,15.57,7.19c3.21,4.79,4.82,11.34,4.82,19.67s-1.61,15.02-4.82,19.81c-3.22,4.79-8.41,7.18-15.57,7.18s-12.35-2.39-15.57-7.18-4.82-11.4-4.82-19.81,1.61-14.88,4.82-19.67Zm22.17,8.38c-1.06-2.63-3.27-3.95-6.6-3.95s-5.54,1.32-6.6,3.95c-1.07,2.64-1.6,6.4-1.6,11.29,0,3.29.19,6.01.58,8.16.38,2.16,1.17,3.9,2.36,5.23,1.19,1.33,2.94,2,5.26,2s4.07-.66,5.26-2c1.18-1.33,1.97-3.07,2.36-5.23.39-2.15.58-4.87.58-8.16,0-4.88-.53-8.65-1.59-11.29Z"/>
        <path class="cls-1" d="m123.88,129.12v10.31h-31.93v-10.31h31.93Z"/>
        <path class="cls-1" d="m133.81,150.32v-10.02l22.93-32.8h13.86v32.07h5.95v10.74h-5.95v9.43h-12.41v-9.43h-24.38Zm25.25-29.17l-12.19,18.43h12.19v-18.43Z"/>
        <path class="cls-1" d="m219.95,117.59h-22.64v10.01c.97-1.06,2.32-1.93,4.06-2.61,1.74-.68,3.63-1.02,5.66-1.02,3.63,0,6.64.82,9.04,2.47,2.39,1.64,4.15,3.77,5.26,6.38,1.12,2.62,1.67,5.44,1.67,8.49,0,5.66-1.59,10.15-4.79,13.46-3.19,3.31-7.69,4.97-13.49,4.97-3.87,0-7.23-.67-10.09-2-2.85-1.33-5.06-3.18-6.6-5.55-1.55-2.37-2.39-5.1-2.54-8.2h12.12c.29,1.5.99,2.75,2.11,3.73,1.11.99,2.63,1.49,4.57,1.49,2.27,0,3.96-.73,5.08-2.17,1.11-1.45,1.67-3.39,1.67-5.81s-.58-4.19-1.74-5.44c-1.16-1.26-2.86-1.89-5.08-1.89-1.64,0-3,.4-4.06,1.2s-1.77,1.85-2.1,3.16h-11.98v-31.57h33.89v10.89Z"/>
      </g>
    </g>
  </g>
</svg>