<?xml version="1.0" encoding="UTF-8"?>
<svg id="Layer_2" data-name="Layer 2" xmlns="http://www.w3.org/2000/svg" viewBox="0 0 136.97 191.43">
  <defs>
    <style>
      .cls-1 {
        fill: #00a323;
      }
    </style>
  </defs>
  <g id="Layer_1-2" data-name="Layer 1">
    <g>
      <g>
        <path class="cls-1" d="m9.25,110.07c5.15-4.53,12.13-6.79,20.95-6.79,5.85,0,10.87,1.01,15.04,3.04,4.17,2.03,7.34,4.8,9.48,8.31,2.15,3.51,3.22,7.45,3.22,11.82,0,5.15-1.29,9.35-3.86,12.58-2.57,3.24-5.58,5.44-9.01,6.61v.47c4.45,1.48,7.96,3.94,10.54,7.38,2.58,3.43,3.86,7.84,3.86,13.23,0,4.84-1.11,9.11-3.34,12.82-2.22,3.71-5.46,6.61-9.72,8.72-4.25,2.11-9.31,3.16-15.16,3.16-9.37,0-16.84-2.3-22.42-6.91-5.58-4.6-8.53-11.55-8.84-20.84h19.43c.08,3.43,1.05,6.15,2.93,8.14,1.87,1.99,4.6,2.99,8.2,2.99,3.04,0,5.4-.88,7.08-2.63,1.68-1.76,2.52-4.08,2.52-6.97,0-3.75-1.19-6.46-3.57-8.14-2.38-1.68-6.19-2.52-11.41-2.52h-3.75v-16.27h3.75c3.98,0,7.2-.68,9.66-2.05,2.46-1.36,3.69-3.8,3.69-7.32,0-2.81-.78-4.99-2.34-6.55-1.56-1.56-3.71-2.34-6.44-2.34-2.97,0-5.17.9-6.61,2.69-1.44,1.8-2.28,4.02-2.52,6.67H1.05c.31-8.35,3.04-14.79,8.2-19.32Z"/>
        <path class="cls-1" d="m78.96,115.1c5.19-7.73,13.56-11.59,25.11-11.59s19.92,3.86,25.11,11.59c5.19,7.73,7.78,18.3,7.78,31.73s-2.6,24.23-7.78,31.96c-5.19,7.73-13.56,11.59-25.11,11.59s-19.92-3.86-25.11-11.59c-5.19-7.73-7.78-18.38-7.78-31.96s2.59-24,7.78-31.73Zm35.76,13.52c-1.72-4.25-5.27-6.38-10.65-6.38s-8.94,2.13-10.65,6.38c-1.72,4.25-2.57,10.32-2.57,18.2,0,5.31.31,9.7.94,13.17.62,3.47,1.89,6.28,3.8,8.43,1.91,2.15,4.74,3.22,8.49,3.22s6.57-1.07,8.49-3.22c1.91-2.14,3.18-4.96,3.8-8.43.62-3.47.94-7.86.94-13.17,0-7.88-.86-13.95-2.58-18.2Z"/>
      </g>
      <path class="cls-1" d="m63.63,88.68c1.13,1.12,2.69,1.88,4.28,2.01,1.61.13,3.27-.26,4.61-1.17.37-.24.71-.53,1.02-.84h0s19.2-19.21,19.2-19.21c2.75-2.75,2.75-7.2,0-9.94-2.75-2.75-7.2-2.75-9.94,0l-7.21,7.21V7.03c0-3.88-3.15-7.03-7.03-7.03s-7.03,3.15-7.03,7.03v59.7l-7.39-7.39c-2.75-2.75-7.2-2.75-9.94,0-2.75,2.75-2.75,7.2,0,9.94l19.4,19.4s0,0,.02,0Z"/>
    </g>
  </g>
</svg>