<?xml version="1.0" encoding="UTF-8"?>
<svg id="Layer_2" data-name="Layer 2" xmlns="http://www.w3.org/2000/svg" viewBox="0 0 223.63 159.58">
  <defs>
    <style>
      .cls-1 {
        fill: #ff8b00;
      }
    </style>
  </defs>
  <g id="Layer_1-2" data-name="Layer 1">
    <g>
      <g>
        <path class="cls-1" d="m85.46,88.68c1.13,1.12,2.69,1.88,4.28,2.01,1.61.13,3.27-.26,4.61-1.17.37-.24.71-.53,1.02-.84h0s19.2-19.21,19.2-19.21c2.75-2.75,2.75-7.2,0-9.94-2.75-2.75-7.2-2.75-9.94,0l-7.21,7.21V7.03c0-3.88-3.15-7.03-7.03-7.03s-7.03,3.15-7.03,7.03v59.7l-7.39-7.39c-2.75-2.75-7.2-2.75-9.94,0-2.75,2.75-2.75,7.2,0,9.94l19.4,19.4s0,0,.02,0Z"/>
        <path class="cls-1" d="m138.17,2.04c-1.13-1.12-2.69-1.88-4.28-2.01-1.61-.13-3.27.26-4.61,1.17-.37.24-.71.53-1.02.84h0s-19.2,19.21-19.2,19.21c-2.75,2.75-2.75,7.2,0,9.94,2.75,2.75,7.2,2.75,9.94,0l7.21-7.21v59.7c0,3.88,3.15,7.03,7.03,7.03s7.03-3.15,7.03-7.03V23.99l7.39,7.39c2.75,2.75,7.2,2.75,9.94,0,2.75-2.75,2.75-7.2,0-9.94l-19.4-19.4s0,0-.02,0Z"/>
      </g>
      <g>
        <path class="cls-1" d="m0,149.92v-9.95l22.78-32.59h13.77v31.86h5.91v10.67h-5.91v9.37h-12.33v-9.37H0Zm25.09-28.98l-12.11,18.31h12.11v-18.31Z"/>
        <path class="cls-1" d="m85.58,117.4h-22.49v9.94c.96-1.06,2.31-1.92,4.04-2.59s3.61-1.01,5.63-1.01c3.6,0,6.59.82,8.98,2.45,2.38,1.63,4.12,3.75,5.22,6.34,1.11,2.6,1.66,5.41,1.66,8.44,0,5.62-1.58,10.08-4.76,13.37s-7.64,4.94-13.41,4.94c-3.85,0-7.19-.66-10.03-1.98-2.83-1.32-5.02-3.16-6.56-5.51-1.54-2.35-2.38-5.07-2.52-8.14h12.04c.29,1.49.99,2.73,2.09,3.71,1.1.99,2.62,1.48,4.54,1.48,2.26,0,3.94-.72,5.05-2.16,1.1-1.44,1.66-3.37,1.66-5.77s-.58-4.16-1.73-5.41c-1.16-1.25-2.84-1.88-5.05-1.88-1.63,0-2.98.4-4.04,1.19s-1.75,1.84-2.09,3.14h-11.9v-31.37h33.67v10.82Z"/>
        <path class="cls-1" d="m127.61,128.86v10.24h-31.72v-10.24h31.72Z"/>
        <path class="cls-1" d="m161.2,116.86c-.96-.89-2.34-1.34-4.11-1.34-2.73,0-4.71,1.19-5.91,3.57-1.2,2.38-1.83,6.14-1.88,11.29,1.06-1.68,2.59-3,4.58-3.97,1.99-.96,4.19-1.44,6.59-1.44,4.71,0,8.5,1.49,11.35,4.47,2.86,2.98,4.29,7.13,4.29,12.47,0,3.51-.7,6.58-2.12,9.22-1.42,2.65-3.49,4.71-6.2,6.2s-5.93,2.24-9.62,2.24c-7.4,0-12.54-2.32-15.43-6.96-2.88-4.63-4.32-11.31-4.32-20.01,0-9.13,1.53-15.92,4.58-20.36s7.94-6.67,14.67-6.67c3.6,0,6.64.71,9.12,2.13s4.35,3.28,5.63,5.59c1.27,2.31,2.03,4.83,2.27,7.57h-11.46c-.39-1.77-1.06-3.11-2.02-4Zm-8.83,19.68c-1.37,1.23-2.06,2.97-2.06,5.23s.64,4.11,1.91,5.41c1.27,1.3,3.09,1.94,5.44,1.94,2.11,0,3.78-.63,5.01-1.91s1.84-3.02,1.84-5.23-.6-4.04-1.8-5.33c-1.2-1.3-2.93-1.95-5.19-1.95-2.07,0-3.78.61-5.15,1.84Z"/>
        <path class="cls-1" d="m187.91,112.72c3.2-4.76,8.35-7.14,15.47-7.14s12.27,2.38,15.47,7.14c3.19,4.76,4.79,11.27,4.79,19.54s-1.6,14.93-4.79,19.68c-3.2,4.76-8.35,7.13-15.47,7.13s-12.27-2.38-15.47-7.13-4.79-11.32-4.79-19.68,1.6-14.78,4.79-19.54Zm22.02,8.33c-1.06-2.62-3.24-3.93-6.56-3.93s-5.5,1.31-6.56,3.93c-1.06,2.62-1.59,6.36-1.59,11.21,0,3.27.19,5.97.58,8.11.38,2.14,1.16,3.87,2.34,5.19,1.18,1.33,2.92,1.98,5.23,1.98s4.05-.66,5.23-1.98c1.17-1.32,1.95-3.05,2.34-5.19.39-2.14.57-4.84.57-8.11,0-4.85-.53-8.59-1.58-11.21Z"/>
      </g>
    </g>
  </g>
</svg>