<?xml version="1.0" encoding="UTF-8"?>
<svg id="Layer_2" data-name="Layer 2" xmlns="http://www.w3.org/2000/svg" viewBox="0 0 138.87 190.18">
  <defs>
    <style>
      .cls-1 {
        fill: #ed4300;
      }
    </style>
  </defs>
  <g id="Layer_1-2" data-name="Layer 1">
    <g>
      <path class="cls-1" d="m74.29,2.04c-1.13-1.12-2.69-1.88-4.28-2.01-1.61-.13-3.27.26-4.61,1.17-.37.24-.71.53-1.02.84h0s-19.2,19.21-19.2,19.21c-2.75,2.75-2.75,7.2,0,9.94,2.75,2.75,7.2,2.75,9.94,0l7.21-7.21v59.7c0,3.88,3.15,7.03,7.03,7.03s7.03-3.15,7.03-7.03V23.99l7.39,7.39c2.75,2.75,7.2,2.75,9.94,0,2.75-2.75,2.75-7.2,0-9.94L74.31,2.04s0,0-.02,0Z"/>
      <g>
        <path class="cls-1" d="m37.13,120.58c-1.57-1.45-3.8-2.18-6.7-2.18-4.47,0-7.68,1.94-9.63,5.81-1.96,3.88-2.98,10.01-3.05,18.4,1.72-2.74,4.21-4.9,7.46-6.46,3.25-1.57,6.84-2.35,10.75-2.35,7.67,0,13.84,2.43,18.51,7.29,4.66,4.86,6.99,11.63,6.99,20.33,0,5.72-1.16,10.73-3.47,15.03-2.31,4.31-5.68,7.68-10.11,10.11-4.42,2.43-9.65,3.64-15.68,3.64-12.07,0-20.45-3.78-25.15-11.34-4.7-7.55-7.05-18.42-7.05-32.6,0-14.88,2.49-25.94,7.46-33.19,4.98-7.25,12.94-10.87,23.91-10.87,5.87,0,10.82,1.16,14.86,3.47s7.09,5.34,9.16,9.1,3.31,7.88,3.7,12.33h-18.68c-.63-2.89-1.73-5.07-3.29-6.51Zm-14.39,32.07c-2.23,2-3.35,4.84-3.35,8.52s1.04,6.69,3.11,8.82c2.07,2.11,5.03,3.16,8.87,3.16,3.44,0,6.17-1.03,8.17-3.11,1.99-2.07,2.99-4.91,2.99-8.52s-.98-6.58-2.94-8.69c-1.96-2.12-4.78-3.17-8.46-3.17-3.37,0-6.17.99-8.4,2.99Z"/>
        <path class="cls-1" d="m80.65,113.82c5.21-7.75,13.61-11.64,25.2-11.64s19.99,3.88,25.2,11.64c5.21,7.75,7.82,18.37,7.82,31.84s-2.61,24.32-7.82,32.08c-5.21,7.75-13.61,11.63-25.2,11.63s-19.99-3.87-25.2-11.63c-5.21-7.75-7.81-18.45-7.81-32.08s2.6-24.08,7.81-31.84Zm35.89,13.57c-1.72-4.26-5.29-6.4-10.69-6.4s-8.97,2.13-10.69,6.4c-1.72,4.27-2.58,10.36-2.58,18.27,0,5.33.31,9.73.94,13.21.63,3.49,1.9,6.31,3.82,8.46,1.92,2.16,4.76,3.23,8.52,3.23s6.6-1.07,8.52-3.23c1.92-2.15,3.19-4.97,3.81-8.46.63-3.48.94-7.89.94-13.21,0-7.91-.87-14-2.59-18.27Z"/>
      </g>
    </g>
  </g>
</svg>