<svg width="30" height="30" viewBox="0 0 30 30" fill="none" xmlns="http://www.w3.org/2000/svg">
<path d="M16.2037 6.46896C16.163 5.75328 15.3865 5.87503 14.6289 5.87503C15.1886 6.01544 15.718 6.21078 16.2037 6.46896Z" fill="white"/>
<path d="M8.1047 4.67383C5.16352 4.67383 3.80974 8.18054 6.16093 9.94423C6.96245 7.92824 8.55804 6.4807 10.6498 5.90934C10.0776 5.1642 9.15312 4.67383 8.1047 4.67383Z" fill="white"/>
<path d="M2.02819 9.39513C2.14805 9.75743 2.30335 10.105 2.48784 10.4343L1.5217 11.3449C1.26224 11.5893 1.26224 11.986 1.5217 12.2309L3.22466 13.8355C3.34868 13.9523 3.51861 14.0181 3.69572 14.0181C3.87088 14.0181 4.03967 13.9523 4.16584 13.8355L5.13091 12.9249C5.27573 12.9971 5.43626 13.0414 5.58626 13.1036C5.58626 13.0933 5.58519 13.0825 5.58519 13.0721C5.58519 12.328 5.67592 11.6261 5.83746 10.9669C4.67226 10.2605 3.89477 9.03435 3.89477 7.63441C3.89477 5.4476 5.78323 3.66823 8.10423 3.66823C9.67586 3.66823 11.0328 4.49239 11.7571 5.69649C12.5305 5.60615 13.2569 5.60615 14.1313 5.76179C14.0188 5.44128 13.8865 5.1276 13.7207 4.83358L14.6868 3.92255C14.8129 3.80522 14.8827 3.64566 14.8827 3.47978C14.8827 3.31384 14.8129 3.15434 14.6868 3.03701L12.9848 1.43338C12.8546 1.31068 12.6847 1.2498 12.5148 1.2498C12.3449 1.2498 12.175 1.31068 12.0458 1.43338L11.0765 2.3444C10.7264 2.16967 10.3585 2.02339 9.97296 1.91295V0.625849C9.97296 0.280304 9.67693 0 9.30902 0H6.90051C6.53469 0 6.2355 0.280304 6.2355 0.625849V1.91288C5.85095 2.02332 5.48297 2.16961 5.13178 2.34434L4.16584 1.43433C4.03551 1.31163 3.86565 1.25075 3.69572 1.25075C3.52586 1.25075 3.35499 1.31163 3.22573 1.43383L1.5217 3.03745C1.39767 3.15529 1.32788 3.31428 1.32788 3.48073C1.32788 3.64712 1.39767 3.80617 1.5217 3.9235L2.48784 4.83402C2.30328 5.16389 2.14805 5.51095 2.03034 5.87318H0.665012C0.297104 5.87318 0 6.15393 0 6.49998V8.76877C0 9.11381 0.297104 9.39513 0.665012 9.39513H2.02819Z" fill="white"/>
<path d="M22.8923 21.5353C23.9575 20.985 24.6891 19.9317 24.6891 18.7093C24.6891 16.9255 23.1477 15.4746 21.2541 15.4746C20.5881 15.4746 19.971 15.6621 19.4437 15.9723C19.1279 17.1562 18.6308 18.2887 17.9805 19.2724C19.824 19.5988 21.5156 20.3896 22.8923 21.5353Z" fill="white"/>
<path d="M29.999 17.4838C29.999 17.1102 29.6769 16.8078 29.2819 16.8078H27.8083C27.6811 16.4165 27.5123 16.0415 27.3122 15.6857L28.3554 14.703C28.4909 14.5763 28.5659 14.4046 28.5659 14.2254C28.5659 14.0462 28.4909 13.8744 28.3554 13.7473L26.519 12.017C26.3794 11.8849 26.1949 11.8186 26.0115 11.8186C25.8281 11.8186 25.6446 11.8849 25.505 12.017L24.4597 13.0001C24.0823 12.8116 23.6853 12.6537 23.2684 12.5343V11.1462C23.2684 10.7731 22.9484 10.4707 22.5524 10.4707H19.9542C19.7801 10.4707 19.6269 10.5364 19.502 10.6337C19.7207 11.3856 19.8406 12.201 19.8406 13.0708C19.8406 13.623 19.7948 14.1837 19.7093 14.7412C20.1929 14.5733 20.7077 14.4679 21.2528 14.4679C23.7353 14.4679 25.7551 16.37 25.7551 18.7078C25.7551 20.2021 24.9266 21.5117 23.6832 22.2671C24.5879 23.2017 25.307 24.3106 25.775 25.5529C25.852 25.5779 25.9323 25.5961 26.0125 25.5961C26.196 25.5961 26.3794 25.5304 26.5201 25.3983L28.3576 23.668C28.4921 23.5413 28.566 23.3695 28.566 23.1904C28.566 23.0112 28.4921 22.8394 28.3576 22.7122L27.3122 21.7291C27.5124 21.3737 27.6811 20.9986 27.8084 20.607H29.282C29.4716 20.607 29.6561 20.5363 29.7895 20.4086C29.924 20.2824 30.0001 20.1102 30.0001 19.931L29.999 17.4838Z" fill="white"/>
<path d="M24.3122 26.1651C23.198 23.0771 20.2538 20.9532 16.8552 20.6641C15.7171 21.7993 14.308 22.5195 12.7123 22.5195C11.1178 22.5195 9.70761 21.7994 8.5706 20.6641C5.1699 20.9532 2.22564 23.0771 1.11145 26.1656L0.49556 27.8733C0.319391 28.3647 0.403751 28.9061 0.724814 29.3277C1.04581 29.7494 1.56277 29.9998 2.11302 29.9998H23.3105C23.8618 29.9998 24.3788 29.7494 24.6999 29.3277C25.0198 28.9061 25.1053 28.3647 24.928 27.8733L24.3122 26.1651Z" fill="white"/>
<path d="M7.1875 13.072C7.1875 16.9023 9.66279 21.0122 12.7143 21.0122C15.767 21.0122 18.2422 16.9023 18.2422 13.072C18.2422 5.13231 7.1875 5.11657 7.1875 13.072Z" fill="white"/>
</svg>
