<svg width="800" height="800" viewBox="0 0 800 800" fill="none" xmlns="http://www.w3.org/2000/svg">
<g clip-path="url(#clip0_511_12)">
<path d="M200 300C255.228 300 300 255.228 300 200M200 300C144.772 300 100 255.228 100 200M200 300V400M300 200C300 144.772 255.228 100 200 100M300 200H400M200 100C144.772 100 100 144.772 100 200M200 100V0M100 200H0M66.6667 66.6667L133.333 133.333M266.667 266.667L333.333 333.333M333.333 66.6667L266.667 133.333M133.333 266.667L66.6667 333.333M600 400C655.228 400 700 355.228 700 300M600 400C544.772 400 500 355.228 500 300M600 400V500M700 300C700 244.772 655.228 200 600 200M700 300H800M600 200C544.772 200 500 244.772 500 300M600 200V100M500 300H400M466.667 166.667L533.333 233.333M666.667 366.667L733.333 433.333M733.333 166.667L666.667 233.333M533.333 366.667L466.667 433.333M300 700C355.228 700 400 655.228 400 600M300 700C244.772 700 200 655.228 200 600M300 700V800M400 600C400 544.772 355.228 500 300 500M400 600H500M300 500C244.772 500 200 544.772 200 600M300 500V400M200 600H100M166.667 466.667L233.333 533.333M366.667 666.667L433.333 733.333M433.333 466.667L366.667 533.333M233.333 666.667L166.667 733.333" stroke="white" stroke-width="66.6667"/>
</g>
<defs>
<clipPath id="clip0_511_12">
<rect width="800" height="800" fill="white"/>
</clipPath>
</defs>
</svg>
