<svg width="100" height="110" viewBox="0 0 100 110" fill="none" xmlns="http://www.w3.org/2000/svg">
<ellipse cx="50" cy="37" rx="50" ry="27" fill="white"/>
<path d="M37.6544 59.3219C40.4724 59.3219 42.7568 56.9559 42.7568 54.0373C42.7568 51.1187 40.4724 48.7527 37.6544 48.7527C34.8364 48.7527 32.552 51.1187 32.552 54.0373C32.552 56.9559 34.8364 59.3219 37.6544 59.3219Z" fill="black"/>
<path d="M37.6546 59.4286C34.7819 59.4286 32.4491 57.0083 32.4491 54.0373C32.4491 51.0621 34.786 48.646 37.6546 48.646C40.5272 48.646 42.86 51.0663 42.86 54.0373C42.86 57.0126 40.5231 59.4286 37.6546 59.4286ZM37.6546 48.8594C34.8973 48.8594 32.6552 51.1816 32.6552 54.0373C32.6552 56.893 34.8973 59.2152 37.6546 59.2152C40.4118 59.2152 42.6539 56.893 42.6539 54.0373C42.6539 51.1816 40.4118 48.8594 37.6546 48.8594Z" fill="black"/>
<path d="M37.6544 57.3374C39.414 57.3374 40.8403 55.8601 40.8403 54.0377C40.8403 52.2154 39.414 50.7381 37.6544 50.7381C35.8949 50.7381 34.4685 52.2154 34.4685 54.0377C34.4685 55.8601 35.8949 57.3374 37.6544 57.3374Z" fill="white"/>
<path d="M37.6543 57.4441C35.8408 57.4441 34.3653 55.9159 34.3653 54.0377C34.3653 52.1595 35.8408 50.6313 37.6543 50.6313C39.4677 50.6313 40.9432 52.1595 40.9432 54.0377C40.9432 55.9159 39.4677 57.4441 37.6543 57.4441ZM37.6543 50.8448C35.9521 50.8448 34.5714 52.279 34.5714 54.0377C34.5714 55.8007 35.9562 57.2307 37.6543 57.2307C39.3564 57.2307 40.7371 55.7964 40.7371 54.0377C40.7371 52.2748 39.3523 50.8448 37.6543 50.8448Z" fill="black"/>
<path d="M37.6545 55.5016C38.4352 55.5016 39.0681 54.8461 39.0681 54.0375C39.0681 53.2289 38.4352 52.5733 37.6545 52.5733C36.8737 52.5733 36.2408 53.2289 36.2408 54.0375C36.2408 54.8461 36.8737 55.5016 37.6545 55.5016Z" fill="black"/>
<path d="M37.6543 55.6083C36.8177 55.6083 36.1376 54.904 36.1376 54.0375C36.1376 53.1709 36.8177 52.4666 37.6543 52.4666C38.491 52.4666 39.171 53.1709 39.171 54.0375C39.171 54.904 38.491 55.6083 37.6543 55.6083ZM37.6543 52.68C36.9331 52.68 36.3437 53.2905 36.3437 54.0375C36.3437 54.7845 36.9331 55.3949 37.6543 55.3949C38.3756 55.3949 38.965 54.7845 38.965 54.0375C38.965 53.2905 38.3756 52.68 37.6543 52.68Z" fill="black"/>
<path d="M67.4613 59.3219C70.2793 59.3219 72.5637 56.9559 72.5637 54.0373C72.5637 51.1187 70.2793 48.7527 67.4613 48.7527C64.6433 48.7527 62.3589 51.1187 62.3589 54.0373C62.3589 56.9559 64.6433 59.3219 67.4613 59.3219Z" fill="black"/>
<path d="M67.4612 59.4286C64.5885 59.4286 62.2557 57.0083 62.2557 54.0373C62.2557 51.0621 64.5926 48.646 67.4612 48.646C70.3338 48.646 72.6666 51.0663 72.6666 54.0373C72.6666 57.0126 70.3297 59.4286 67.4612 59.4286ZM67.4612 48.8594C64.7039 48.8594 62.4618 51.1816 62.4618 54.0373C62.4618 56.893 64.7039 59.2152 67.4612 59.2152C70.2184 59.2152 72.4605 56.893 72.4605 54.0373C72.4605 51.1816 70.2184 48.8594 67.4612 48.8594Z" fill="black"/>
<path d="M67.4611 57.3374C69.2206 57.3374 70.647 55.8601 70.647 54.0377C70.647 52.2154 69.2206 50.7381 67.4611 50.7381C65.7015 50.7381 64.2751 52.2154 64.2751 54.0377C64.2751 55.8601 65.7015 57.3374 67.4611 57.3374Z" fill="white"/>
<path d="M67.4613 57.4441C65.6478 57.4441 64.1723 55.9159 64.1723 54.0377C64.1723 52.1595 65.6478 50.6313 67.4613 50.6313C69.2747 50.6313 70.7502 52.1595 70.7502 54.0377C70.7502 55.9159 69.2747 57.4441 67.4613 57.4441ZM67.4613 50.8448C65.7591 50.8448 64.3784 52.279 64.3784 54.0377C64.3784 55.8007 65.7632 57.2307 67.4613 57.2307C69.1593 57.2307 70.5442 55.7964 70.5442 54.0377C70.5442 52.2748 69.1593 50.8448 67.4613 50.8448Z" fill="black"/>
<path d="M67.4611 55.5016C68.2418 55.5016 68.8748 54.8461 68.8748 54.0375C68.8748 53.2289 68.2418 52.5733 67.4611 52.5733C66.6803 52.5733 66.0474 53.2289 66.0474 54.0375C66.0474 54.8461 66.6803 55.5016 67.4611 55.5016Z" fill="black"/>
<path d="M67.4612 55.6083C66.6245 55.6083 65.9445 54.904 65.9445 54.0375C65.9445 53.1709 66.6245 52.4666 67.4612 52.4666C68.2978 52.4666 68.9779 53.1709 68.9779 54.0375C68.9779 54.904 68.2937 55.6083 67.4612 55.6083ZM67.4612 52.68C66.7399 52.68 66.1505 53.2905 66.1505 54.0375C66.1505 54.7845 66.7399 55.3949 67.4612 55.3949C68.1824 55.3949 68.7718 54.7845 68.7718 54.0375C68.7718 53.2905 68.1824 52.68 67.4612 52.68Z" fill="black"/>
<path d="M51.6677 30.4956L53.3699 32.9543L57.0545 33.394L57.8582 33.3385C57.9736 33.33 58.0849 33.3556 58.1879 33.4068L58.7484 33.6971C58.9298 33.744 59.243 34.8112 59.243 34.8112L56.5599 34.7856L52.2983 34.9008C52.2323 34.8197 50.3241 32.075 50.3241 32.075L51.6677 30.4956Z" fill="white"/>
<path d="M52.2529 35.0077L52.2199 34.9693C52.154 34.8882 50.4353 32.4167 50.2416 32.1349L50.1921 32.0666L51.6759 30.325L53.4275 32.8563L57.0586 33.2875L57.854 33.232C57.9859 33.2234 58.1178 33.2491 58.2373 33.3131L58.7937 33.5991C58.9874 33.6759 59.1976 34.2821 59.346 34.7815L59.3872 34.9224L56.564 34.8968L52.2529 35.0077ZM50.4559 32.0794C50.9752 32.8265 52.1457 34.504 52.3518 34.79L56.5599 34.6791L59.1028 34.7047C58.9709 34.2863 58.802 33.8595 58.7195 33.7997H58.7154L58.1425 33.5052C58.056 33.4625 57.9612 33.4411 57.8664 33.4497L57.0544 33.5052H57.0462L53.3162 33.057L51.6635 30.6665L50.4559 32.0794Z" fill="black"/>
<path d="M49.3841 27.1536C49.3841 27.1536 50.8184 28.9635 52.298 31.0082L51.8034 31.657L48.9349 28.0372L49.3841 27.1536Z" fill="#F5BF00"/>
<path d="M51.8035 31.8275L48.8112 28.0497L49.3635 26.9612L49.4624 27.085C49.4748 27.1021 50.9132 28.9205 52.3805 30.9396L52.4299 31.0036L51.8035 31.8275ZM49.0585 28.0241L51.8035 31.486L52.1703 31.0036C50.9462 29.3175 49.7509 27.7808 49.4047 27.3454L49.0585 28.0241Z" fill="black"/>
<path d="M62.0909 36.6256C63.0697 36.6256 63.8632 35.8038 63.8632 34.79C63.8632 33.7763 63.0697 32.9545 62.0909 32.9545C61.1121 32.9545 60.3187 33.7763 60.3187 34.79C60.3187 35.8038 61.1121 36.6256 62.0909 36.6256Z" fill="white"/>
<path d="M62.0908 36.7323C61.0563 36.7323 60.2155 35.8614 60.2155 34.79C60.2155 33.7186 61.0563 32.8478 62.0908 32.8478C63.1253 32.8478 63.9661 33.7186 63.9661 34.79C63.9661 35.8614 63.1212 36.7323 62.0908 36.7323ZM62.0908 33.0612C61.1717 33.0612 60.4216 33.8338 60.4216 34.79C60.4216 35.7462 61.1676 36.5188 62.0908 36.5188C63.014 36.5188 63.76 35.7462 63.76 34.79C63.76 33.8338 63.0099 33.0612 62.0908 33.0612Z" fill="black"/>
<path d="M52.3642 52.2915C52.3642 52.2915 52.7228 52.8464 54.2478 52.7568C54.2478 52.7568 55.5254 52.5476 55.7933 52.2232L55.546 51.0878L52.5208 51.1561L52.3642 52.2915Z" fill="black"/>
<path d="M54.7296 51.3908C54.7296 51.3908 55.1541 53.0172 56.1515 53.1922C57.4003 53.4141 57.7589 54.1014 57.7877 54.2636H52.9079L53.2458 51.4463L54.7296 51.3908Z" fill="white"/>
<path d="M57.9117 54.3707H52.7886L53.1554 51.3442L54.8082 51.2802L54.8288 51.3613C54.8329 51.3783 55.2492 52.9236 56.1683 53.0858C57.4336 53.312 57.8457 54.0121 57.8911 54.2383L57.9117 54.3707ZM53.0236 54.1572H57.6273C57.4995 53.9353 57.1245 53.4742 56.1312 53.2992C55.2038 53.1327 54.7546 51.8436 54.6516 51.5021L53.3368 51.5533L53.0236 54.1572Z" fill="black"/>
<path d="M47.0516 37.7653L54.5197 38.5251C55.4636 38.619 56.1683 39.6307 56.1271 40.6125L55.6902 52.014C55.6902 52.014 54.9855 51.6171 54.0416 51.6171C53.2338 51.6171 52.4301 52.0994 52.4301 52.0994L51.647 41.4278L49.1577 41.3595L47.0516 37.7653Z" fill="white"/>
<path d="M52.3395 52.2746L51.5482 41.5304L49.0959 41.4621L46.8538 37.6374L54.5322 38.4185C55.0062 38.4655 55.4513 38.7344 55.7769 39.1698C56.086 39.5881 56.255 40.1132 56.2344 40.6169L55.7892 52.1892L55.645 52.1081C55.6367 52.1038 54.9484 51.7239 54.0458 51.7239C53.2751 51.7239 52.492 52.1849 52.4838 52.1892L52.3395 52.2746ZM49.2196 41.2529L51.746 41.3212L52.525 51.9246C52.797 51.7837 53.4153 51.5062 54.0458 51.5062C54.763 51.5062 55.34 51.7282 55.5996 51.8435L56.0283 40.6041C56.0695 39.6351 55.3606 38.7131 54.5157 38.6277L47.2495 37.8892L49.2196 41.2529Z" fill="black"/>
<path d="M49.9202 52.219C49.9202 52.219 50.4807 52.7526 52.0057 52.6587C52.0057 52.6587 53.2833 52.4965 53.5512 52.172L53.3946 50.8957L50.2128 51.0793L49.9202 52.219Z" fill="black"/>
<path d="M52.3971 51.3908C52.3971 51.3908 52.8216 53.0172 53.819 53.1922C55.0678 53.4141 55.4264 54.1014 55.4552 54.2636H50.5754L50.9133 51.4463L52.3971 51.3908Z" fill="white"/>
<path d="M55.583 54.3707H50.46L50.8268 51.3442L52.4795 51.2802L52.5001 51.3613C52.5042 51.3783 52.9205 52.9236 53.8396 53.0858C55.1049 53.312 55.517 54.0121 55.5624 54.2383L55.583 54.3707ZM50.6949 54.1572H55.2986C55.1708 53.9353 54.7958 53.4742 53.8025 53.2992C52.8752 53.1327 52.4259 51.8436 52.3229 51.5021L51.0081 51.5533L50.6949 54.1572Z" fill="black"/>
<path d="M45.366 52.0185L37.7082 52.4197C36.8139 52.4667 36.1174 53.2436 36.138 54.1741C36.1627 55.1047 36.8963 55.8432 37.7948 55.8389L47.5669 55.809L45.366 52.0185Z" fill="white"/>
<path d="M37.7903 55.9498C37.3329 55.9498 36.896 55.7663 36.5663 55.4376C36.2365 55.1046 36.0469 54.6607 36.0346 54.1826C36.0222 53.7045 36.1871 53.2478 36.5003 52.8977C36.8135 52.5477 37.2381 52.3428 37.6997 52.3172L45.4192 51.9117L47.752 55.9199L37.7986 55.9498C37.7945 55.9498 37.7945 55.9498 37.7903 55.9498ZM45.308 52.1294L37.712 52.5264C36.863 52.569 36.2201 53.2947 36.2407 54.1698C36.2613 55.0321 36.9578 55.7321 37.7903 55.7321H37.7945L47.3852 55.7022L45.308 52.1294Z" fill="black"/>
<path d="M65.1408 48.5951L67.9022 53.3461C68.1083 53.7004 68.0052 54.1614 67.6673 54.3834C67.3293 54.6054 66.8842 54.5114 66.6616 54.17L63.7065 49.6708L65.1408 48.5951Z" fill="white"/>
<path d="M67.2675 54.6096C66.9997 54.6096 66.7359 54.4773 66.5751 54.2255L63.5623 49.6452L65.1697 48.4414L67.9888 53.2906C68.2279 53.7004 68.1083 54.2169 67.7209 54.473C67.5808 54.567 67.4242 54.6096 67.2675 54.6096ZM63.8467 49.6964L66.7441 54.1102C66.9378 54.4047 67.317 54.4858 67.6096 54.2938C67.9023 54.1017 67.9929 53.709 67.8116 53.4016L65.1079 48.7488L63.8467 49.6964Z" fill="black"/>
<path d="M35.9812 43.4469C35.9812 43.4469 37.5515 40.3351 41.2691 40.382H48.8526C49.9366 40.382 50.8309 41.2742 50.8557 42.3968C50.8845 43.5792 50.5053 44.9538 48.799 45.5343L35.9812 43.4469Z" fill="black"/>
<path d="M48.8073 45.6452L35.8204 43.528L35.8863 43.3957C35.9028 43.3615 36.2985 42.5931 37.1599 41.8163C37.9553 41.0991 39.3113 40.2497 41.269 40.2753H48.8485C49.4008 40.2753 49.9242 40.493 50.3198 40.8942C50.7155 41.2912 50.9422 41.8248 50.9546 42.3968C50.9834 43.5365 50.6331 45.022 48.8279 45.6367L48.8073 45.6452ZM36.146 43.3658L48.7908 45.4275C50.1303 44.9623 50.7897 43.9463 50.7526 42.4053C50.7279 41.351 49.8747 40.493 48.8526 40.493H41.269C39.3814 40.4716 38.0707 41.2869 37.3041 41.9742C36.6736 42.5377 36.2944 43.1139 36.146 43.3658Z" fill="black"/>
<path d="M59.4779 56.4664H47.3977C46.7754 56.4664 46.1901 56.1463 45.8439 55.6127L43.5771 52.1508L30.174 49.9695C30.174 49.9695 30.2935 44.0703 34.9714 43.144C37.6834 42.6061 42.794 42.6573 46.0212 43.3062C46.8084 43.4641 48.4158 43.733 48.9433 44.924C49.1164 45.3167 49.137 45.7649 49.0257 46.179C48.799 47.0199 48.3498 49.7774 50.4106 54.1699H59.0616C59.0616 54.1699 60.3145 52.313 61.213 49.389C61.213 49.389 62.3794 41.9615 58.1672 36.3909C58.1672 36.3909 56.3661 32.865 62.1115 32.7071C62.2722 32.7028 62.4041 32.8352 62.4041 33.0016V36.5275C62.4041 36.7026 62.2558 36.8392 62.0868 36.8178L61.6169 36.7623C61.6169 36.7623 65.6065 42.7982 65.9651 46.3711C65.9651 46.3711 71.1623 45.9997 72.1061 49.5725C72.1061 49.5725 67.1315 48.6462 64.1723 51.4294L61.279 55.5188C60.8586 56.1164 60.1909 56.4664 59.4779 56.4664Z" fill="#F5BF00"/>
<path d="M59.4778 56.5729H47.3977C46.7382 56.5729 46.1283 56.2357 45.7573 55.6722L43.5194 52.2488L30.075 50.0589V49.9693C30.075 49.9095 30.2069 43.9804 34.9549 43.0413C37.7657 42.4864 42.8434 42.5589 46.0417 43.2035L46.153 43.2248C46.9773 43.387 48.5146 43.6944 49.0422 44.8811C49.2194 45.2823 49.2524 45.7561 49.1287 46.2086C49.0174 46.6184 48.8526 47.5063 48.968 48.8338C49.1081 50.4517 49.6192 52.2103 50.4806 54.0629H59.0121C59.2058 53.7599 60.3104 51.9884 61.1182 49.3632C61.1388 49.2308 61.3984 47.4124 61.1717 44.9835C60.9574 42.6699 60.2485 39.3147 58.0889 36.459L58.0806 36.4419C58.0559 36.3907 57.4706 35.2211 58.0683 34.1625C58.6205 33.185 59.9806 32.6599 62.1115 32.6002C62.2186 32.5959 62.3175 32.6386 62.3917 32.7154C62.4659 32.7922 62.5071 32.8947 62.5071 33.0014V36.5273C62.5071 36.6426 62.4618 36.7493 62.3793 36.8261C62.2969 36.903 62.1856 36.9371 62.0785 36.9243L61.8312 36.8944C62.5071 37.9445 65.6807 43.037 66.0598 46.2598C66.4061 46.247 67.523 46.23 68.71 46.5288C70.6017 47.0026 71.8135 48.0441 72.2091 49.5467L72.2503 49.7089L72.0896 49.679C72.0772 49.6748 70.8367 49.4485 69.254 49.5638C67.8032 49.6705 65.759 50.0888 64.2546 51.5018L61.3655 55.5826C60.9245 56.2058 60.2197 56.5729 59.4778 56.5729ZM30.2852 49.8797L43.6389 52.0524L45.9304 55.5527C46.2602 56.0564 46.8124 56.3595 47.4018 56.3595H59.4819C60.1579 56.3595 60.8008 56.0223 61.2006 55.4588L64.1021 51.3609L64.1104 51.3523C65.6601 49.8925 67.7579 49.4571 69.2499 49.3503C70.5276 49.2564 71.5785 49.3845 71.9701 49.44C71.5497 48.0868 70.4451 47.1776 68.677 46.7337C67.2881 46.3836 65.9939 46.4733 65.9815 46.4733L65.8826 46.4818L65.8703 46.3794C65.5199 42.8705 61.5798 36.8816 61.5386 36.8176L61.4108 36.6255L62.1032 36.7066C62.1568 36.7109 62.2062 36.6981 62.2433 36.6596C62.2804 36.6255 62.3052 36.5743 62.3052 36.5188V32.9929C62.3052 32.9417 62.2846 32.8947 62.2516 32.8605C62.2145 32.8264 62.1691 32.8051 62.1197 32.8051C60.0631 32.8605 58.7607 33.3514 58.2496 34.2607C57.7344 35.1742 58.2125 36.2242 58.262 36.3267C59.2264 37.603 59.9889 39.0885 60.5247 40.7319C60.9533 42.051 61.2418 43.4724 61.3778 44.9622C61.6127 47.4978 61.3242 49.3802 61.3201 49.3973L61.316 49.4144C60.4134 52.364 59.1481 54.2294 59.1398 54.238L59.111 54.2678H50.3487L50.3198 54.2081C49.4296 52.3128 48.902 50.5072 48.7578 48.8466C48.6383 47.4849 48.8114 46.5715 48.9268 46.1446C49.0339 45.7391 49.0092 45.3207 48.8485 44.9622C48.3662 43.8737 46.899 43.5834 46.1077 43.4255L45.9964 43.4041C42.8723 42.7766 37.7286 42.6998 34.9878 43.2419C33.0878 43.6176 31.7154 44.8597 30.9158 46.93C30.4047 48.2661 30.3017 49.5339 30.2852 49.8797Z" fill="black"/>
<path d="M30.6603 49.2269L30.4583 49.1842C31.0477 46.3285 33.3352 45.065 33.7885 44.8387C35.2929 44.0917 38.3263 43.9978 42.8105 44.5485C45.1762 44.843 46.3673 45.9699 46.3509 47.9036H46.1448C46.1571 46.0937 45.0279 45.0394 42.7858 44.7619C37.2506 44.0789 34.8848 44.5314 33.8792 45.0308C33.4382 45.2443 31.2291 46.4694 30.6603 49.2269Z" fill="white"/>
<path d="M39.336 48.3132L36.3767 48.0528C36.3149 48.0486 36.2696 47.9931 36.2737 47.9291C36.2778 47.865 36.3314 47.8181 36.3932 47.8223L39.3525 48.0827C39.4143 48.087 39.4596 48.1425 39.4555 48.2065C39.4514 48.2705 39.3978 48.3175 39.336 48.3132Z" fill="white"/>
<path d="M39.336 48.915L36.3767 48.6546C36.3149 48.6504 36.2696 48.5949 36.2737 48.5309C36.2778 48.4668 36.3314 48.4199 36.3932 48.4241L39.3525 48.6845C39.4143 48.6888 39.4596 48.7443 39.4555 48.8083C39.4514 48.8724 39.3978 48.9193 39.336 48.915Z" fill="white"/>
<path d="M39.336 49.5169L36.3767 49.2608C36.3149 49.2565 36.2696 49.201 36.2737 49.137C36.2778 49.073 36.3314 49.026 36.3932 49.0303L39.3525 49.2907C39.4143 49.2949 39.4596 49.3504 39.4555 49.4144C39.4514 49.4742 39.3978 49.5254 39.336 49.5169Z" fill="white"/>
<path d="M32.1111 44.9497L31.7979 44.6765C31.5547 44.463 31.3816 44.177 31.3033 43.8569L30.7263 41.5091L31.3363 41.3469L31.9133 43.6947C31.9586 43.8825 32.0617 44.0533 32.2059 44.177L32.5192 44.4502C32.6511 44.5655 32.6675 44.7704 32.5563 44.907C32.4409 45.0478 32.243 45.0649 32.1111 44.9497Z" fill="white"/>
<path d="M32.313 45.133C32.2141 45.133 32.1193 45.0989 32.0451 45.0306L31.7319 44.7574C31.4681 44.5269 31.2868 44.2281 31.2043 43.8823L30.6026 41.4321L31.4104 41.2187L32.008 43.6689C32.0492 43.8354 32.1399 43.9848 32.2677 44.0958L32.5809 44.369C32.7581 44.5226 32.7788 44.7958 32.6304 44.9751C32.5603 45.0647 32.4573 45.116 32.346 45.1288C32.3378 45.133 32.3254 45.133 32.313 45.133ZM30.8499 41.5858L31.4022 43.8311C31.4764 44.1299 31.6371 44.3946 31.8638 44.5952L32.177 44.8684C32.2182 44.9068 32.2759 44.9239 32.3295 44.9196C32.3872 44.9153 32.4367 44.8855 32.4738 44.8428C32.5479 44.7489 32.5356 44.6123 32.449 44.5354L32.1358 44.2622C31.9751 44.1214 31.8638 43.9378 31.8102 43.7244L31.2579 41.4791L30.8499 41.5858Z" fill="black"/>
<path d="M37.8194 43.4387L37.4609 42.7856C37.1105 42.1453 36.4593 41.7526 35.7504 41.7526H25.2942C25.1211 41.7526 24.981 41.6074 24.981 41.4281C24.981 41.2489 25.1211 41.1037 25.2942 41.1037H35.7546C36.6901 41.1037 37.5515 41.6245 38.009 42.4654L38.3676 43.1185C38.4541 43.2765 38.4006 43.4728 38.2481 43.5625C38.0956 43.6521 37.9019 43.5966 37.8194 43.4387Z" fill="white"/>
<path d="M38.0912 43.7118C37.947 43.7118 37.8027 43.635 37.7285 43.4941L37.37 42.841C37.0402 42.2391 36.4179 41.8635 35.7502 41.8635H25.294C25.0632 41.8635 24.8777 41.6714 24.8777 41.4323C24.8777 41.1933 25.0632 41.0012 25.294 41.0012H35.7543C36.7229 41.0012 37.6214 41.5433 38.0995 42.4184L38.458 43.0715C38.5693 43.2807 38.4992 43.5411 38.3014 43.6606C38.2314 43.6947 38.1613 43.7118 38.0912 43.7118ZM37.9058 43.3874C37.9635 43.4941 38.0912 43.5282 38.1943 43.4685C38.2973 43.4087 38.3303 43.2764 38.2726 43.1697L37.914 42.5166C37.473 41.7098 36.6446 41.2061 35.7461 41.2061H25.294C25.1786 41.2061 25.0838 41.3043 25.0838 41.4238C25.0838 41.5433 25.1786 41.6415 25.294 41.6415H35.7543C36.5003 41.6415 37.1886 42.0598 37.5554 42.73L37.9058 43.3874Z" fill="black"/>
<path d="M41.9 37.3217C41.9 37.3217 41.764 40.8946 49.4341 38.1114L49.4794 37.1211L42.885 35.6954L41.9 37.3217Z" fill="white"/>
<path d="M44.6488 39.2766C43.7338 39.2766 43.0208 39.0845 42.5221 38.7046C41.772 38.1326 41.7926 37.3472 41.7967 37.313V37.2832L42.8353 35.5714L49.5822 37.0313L49.5328 38.1838L49.4668 38.2095C47.5792 38.8967 45.9965 39.2553 44.7683 39.2766C44.7271 39.2766 44.69 39.2766 44.6488 39.2766ZM42.0028 37.3515C42.0069 37.4881 42.0522 38.0857 42.6498 38.5381C43.4247 39.1272 45.2175 39.5157 49.3349 38.0302L49.372 37.2063L42.9342 35.8147L42.0028 37.3515Z" fill="black"/>
<path d="M49.9075 29.8344L50.4144 27.4525C50.4144 27.4525 52.2939 28.4087 52.0795 24.3962L49.0255 24.234L48.6669 26.4537L47.4346 28.8655L49.9075 29.8344Z" fill="white"/>
<path d="M49.9861 29.9795L47.2906 28.9251L48.5724 26.4237L48.9433 24.1272L52.1787 24.2979L52.1828 24.3918C52.2694 26.0438 52.018 27.0854 51.4327 27.4866C51.0659 27.7385 50.6785 27.6616 50.4889 27.5976L49.9861 29.9795ZM47.5832 28.8099L49.8377 29.6935L50.3446 27.2988L50.4641 27.3586C50.4806 27.3671 50.9258 27.5848 51.3255 27.3073C51.6759 27.064 52.0715 26.381 51.985 24.4986L49.1164 24.3492L48.7702 26.492L47.5832 28.8099Z" fill="black"/>
<path d="M59.6345 34.0688L57.7097 34.3591C57.413 34.4017 57.211 34.6877 57.2522 34.9908C57.2934 35.2982 57.5696 35.5073 57.8622 35.4646L59.7869 35.1744C60.0837 35.1317 60.2856 34.8457 60.2444 34.5426C60.2032 34.2353 59.9271 34.0261 59.6345 34.0688Z" fill="white"/>
<path d="M57.7841 35.5756C57.4708 35.5756 57.1947 35.3365 57.1494 35.0036C57.0999 34.6407 57.3431 34.3035 57.6934 34.248L59.6181 33.9577C59.9685 33.9065 60.2941 34.1584 60.3476 34.5212C60.3724 34.6962 60.3312 34.8712 60.2281 35.0164C60.1251 35.1572 59.9767 35.2511 59.8036 35.2768L57.8789 35.567C57.8459 35.5713 57.817 35.5756 57.7841 35.5756ZM59.647 34.1754L57.7223 34.4657C57.4832 34.4999 57.3183 34.7304 57.3513 34.9779C57.3843 35.2255 57.6068 35.3963 57.8459 35.3621L59.7706 35.0719C59.886 35.0548 59.9891 34.9908 60.0591 34.8968C60.1292 34.8029 60.1581 34.6791 60.1416 34.5596C60.1086 34.3078 59.886 34.137 59.647 34.1754Z" fill="black"/>
<path d="M44.933 34.8199C44.933 34.8199 42.8022 39.8782 45.1267 41.4534C46.9978 42.7211 50.699 42.115 50.699 42.115L50.0436 51.9927C50.0436 51.9927 50.7031 51.5359 51.9066 51.5573C53.1018 51.5786 53.4604 51.95 53.4604 51.95L55.2244 40.3947C55.3563 39.1355 55.0677 38.1451 53.7777 37.9189L49.6686 37.5006L49.2605 36.4035L44.933 34.8199Z" fill="white"/>
<path d="M49.9283 52.1934L49.9407 51.9757L50.5878 42.2304C49.9077 42.3285 46.7795 42.6914 45.0691 41.5346C44.084 40.8644 43.7337 39.4771 44.0552 37.522C44.2984 36.0664 44.83 34.7858 44.8383 34.773L44.8754 34.6834L49.339 36.3055L49.7387 37.3897L53.7943 37.8038C54.9813 38.0172 55.4841 38.8624 55.3275 40.3991V40.4034L53.5346 52.1635L53.3904 52.0141C53.3863 52.0098 53.0318 51.6726 51.9067 51.6513C50.7526 51.6299 50.1097 52.0653 50.1014 52.0696L49.9283 52.1934ZM50.8103 41.9828L50.1591 51.7964C50.4353 51.6598 51.0288 51.425 51.9067 51.4421C52.731 51.4549 53.1761 51.6385 53.3822 51.758L55.1214 40.3735C55.2657 38.9563 54.837 38.2093 53.7655 38.0172L49.5945 37.5903L49.1823 36.4762L44.9908 34.9523C44.7229 35.6396 43.1279 39.968 45.1804 41.3596C46.9979 42.5889 50.6455 42.0084 50.6826 42.0041L50.8103 41.9828Z" fill="black"/>
<path d="M51.3995 31.0552L52.9245 33.467L56.8234 33.881L57.5694 33.8042C57.6683 33.7957 57.7672 33.8085 57.8579 33.8426L58.3442 34.0219C58.4638 34.0518 58.6698 34.6067 58.8059 34.9951C58.8677 35.1787 58.7358 35.3665 58.5503 35.3665L56.2464 35.3452L52.1455 35.7592C51.6798 35.8062 51.2264 35.6013 50.9379 35.2171C50.3156 34.3847 49.2893 33.0017 49.2893 33.0017L51.3995 31.0552Z" fill="white"/>
<path d="M52.0138 35.8744C51.5646 35.8744 51.1401 35.661 50.8598 35.2853C50.2375 34.4529 49.2112 33.0699 49.2112 33.0699L49.1535 32.9931L51.4203 30.8929L52.9824 33.3687L56.8236 33.7785L57.5614 33.7059C57.6726 33.6931 57.788 33.7102 57.8952 33.7486L58.3774 33.9279C58.4475 33.945 58.5711 34.0005 58.905 34.9652C58.9462 35.0847 58.9297 35.2128 58.8555 35.3152C58.7855 35.4177 58.67 35.4774 58.5505 35.4774L56.2507 35.4561L52.154 35.8701C52.1086 35.8701 52.0592 35.8744 52.0138 35.8744ZM49.4338 33.0144C49.6604 33.3175 50.4889 34.4359 51.0205 35.153C51.2843 35.5073 51.7006 35.6951 52.1333 35.6524L56.2425 35.2384H56.2466L58.5505 35.2597C58.6041 35.2597 58.6536 35.2341 58.6865 35.1871C58.7195 35.1402 58.7278 35.0847 58.7071 35.0292C58.4434 34.2608 58.3321 34.1371 58.3115 34.1243L57.8251 33.945C57.7468 33.9151 57.6644 33.9066 57.582 33.9151L56.8236 33.9919H56.8154L52.867 33.5736L51.3832 31.2216L49.4338 33.0144Z" fill="black"/>
<path d="M49.574 37.4669C49.574 37.4669 47.4061 36.468 44.8838 36.5833C42.7653 36.6815 42.0482 37.0656 42.0482 37.0656L46.9445 28.2765C47.1052 27.999 47.336 27.7685 47.6163 27.6234C47.9914 27.4356 48.523 27.3545 49.1083 27.8624C50.2129 28.8229 51.981 31.7042 51.981 31.7042L50.0439 34.0178L49.574 37.4669Z" fill="#F5BF00"/>
<path d="M49.6563 37.6246L49.5327 37.5691C49.5121 37.5606 47.3565 36.5788 44.8919 36.694C42.8187 36.788 42.1057 37.1593 42.0975 37.1636L41.7842 37.3301L46.8578 28.225C47.035 27.9177 47.2864 27.6786 47.575 27.5292C47.9541 27.3372 48.5394 27.2262 49.1782 27.7811C50.2828 28.7415 51.9973 31.529 52.0715 31.6442L52.1127 31.7125L50.1468 34.0603L49.6563 37.6246ZM45.2916 36.4678C47.2947 36.4678 49.0216 37.1209 49.4914 37.3173L49.9489 33.9706L51.8531 31.6954C51.5811 31.26 50.0314 28.8056 49.0463 27.9476C48.6012 27.5591 48.1355 27.4866 47.6656 27.7213C47.4101 27.8494 47.1916 28.0628 47.035 28.3318L42.2829 36.8605C42.6621 36.7367 43.4576 36.5446 44.8795 36.4763C45.0196 36.4721 45.1556 36.4678 45.2916 36.4678Z" fill="black"/>
<path d="M49.2098 32.7624L49.0479 32.8943L50.0643 34.2332L50.2263 34.1013L49.2098 32.7624Z" fill="black"/>
<path d="M59.478 55.1134H49.4751V54.9H59.3667L60.9947 52.3473L61.1678 52.4668L59.478 55.1134Z" fill="white"/>
<path d="M58.1774 36.2863L58.1561 36.4986L61.6076 36.8699L61.6289 36.6576L58.1774 36.2863Z" fill="white"/>
<path d="M64.2589 51.4465L64.094 51.3228C65.4953 49.325 65.7756 46.3925 65.7797 46.3626L65.9858 46.3839C65.9775 46.4138 65.6931 49.4061 64.2589 51.4465Z" fill="white"/>
<path d="M33.6032 46.4436C33.5496 46.354 33.5743 46.2345 33.665 46.1832C33.904 46.0467 34.1555 45.9399 34.4192 45.8631C34.5181 45.8375 34.6171 45.9015 34.6377 46.004C34.6583 46.1021 34.6006 46.1961 34.5058 46.2217C34.275 46.2857 34.0524 46.3796 33.8422 46.5034C33.7598 46.5504 33.6568 46.5247 33.6032 46.4436Z" fill="white"/>
<path d="M32.0452 48.5095C31.9463 48.4754 31.8969 48.3601 31.9381 48.262C32.0535 47.9845 32.3131 47.4381 32.7706 46.9216C32.8407 46.8448 32.9561 46.8448 33.0303 46.9173C33.0962 46.9899 33.1003 47.1009 33.0344 47.1735C32.614 47.6473 32.3749 48.1552 32.2678 48.4028C32.2307 48.4967 32.1359 48.5394 32.0452 48.5095Z" fill="white"/>
<path d="M36.4512 30.705V40.4076C36.4512 40.779 36.1586 41.0821 35.8 41.0821H24.7544C24.3958 41.0821 24.1032 40.779 24.1032 40.4076V30.705C24.1032 30.3336 24.3958 30.0305 24.7544 30.0305H35.8042C36.1627 30.0305 36.4512 30.3336 36.4512 30.705Z" fill="white"/>
<path d="M29.4945 36.0709L30.9446 36.0597C31.3045 36.057 31.5985 36.3571 31.6011 36.7299C31.6037 37.1028 31.314 37.4072 30.954 37.4099L29.504 37.4211C29.144 37.4238 28.8501 37.1237 28.8474 36.7509C28.8448 36.3781 29.1346 36.0736 29.4945 36.0709Z" fill="#F5BF00"/>
<path d="M29.4993 37.4207C29.8594 37.4207 30.1513 37.1183 30.1513 36.7454C30.1513 36.3724 29.8594 36.0701 29.4993 36.0701C29.1393 36.0701 28.8474 36.3724 28.8474 36.7454C28.8474 37.1183 29.1393 37.4207 29.4993 37.4207Z" fill="#2D2A2E"/>
<path d="M31.0151 35.8609L29.5651 35.8721C29.2051 35.8748 28.9111 35.5747 28.9085 35.2019C28.9059 34.8291 29.1957 34.5246 29.5556 34.5219L31.0056 34.5107C31.3656 34.508 31.6596 34.8081 31.6622 35.1809C31.6651 35.5537 31.3754 35.8582 31.0151 35.8609Z" fill="#F5BF00"/>
<path d="M31.0105 35.8497C31.3706 35.8497 31.6625 35.5474 31.6625 35.1745C31.6625 34.8015 31.3706 34.4992 31.0105 34.4992C30.6504 34.4992 30.3585 34.8015 30.3585 35.1745C30.3585 35.5474 30.6504 35.8497 31.0105 35.8497Z" fill="#2D2A2E"/>
<path d="M28.4894 38.2886C28.4809 38.2629 28.4656 38.2439 28.4496 38.2304C28.4225 38.2091 28.3934 38.2071 28.3686 38.2071C28.3414 38.2071 28.3071 38.2115 28.2777 38.2382C28.2562 38.2581 28.2399 38.292 28.2399 38.3265C28.2399 38.3498 28.2483 38.3745 28.2702 38.3948C28.2843 38.4084 28.3156 38.4263 28.3307 38.4341L28.3953 38.4655C28.4287 38.4811 28.461 38.5014 28.4871 38.5291C28.528 38.5728 28.5358 38.6117 28.5358 38.6601C28.5358 38.7037 28.5283 38.7717 28.4754 38.8289C28.4149 38.8938 28.3395 38.9003 28.2889 38.9003C28.2307 38.9003 28.183 38.8891 28.1399 38.8444C28.1085 38.8109 28.085 38.7619 28.0795 38.7081L28.1592 38.6858C28.1615 38.7237 28.1755 38.7585 28.198 38.7829C28.2294 38.8164 28.265 38.8221 28.3006 38.8221C28.3352 38.8221 28.3793 38.8164 28.413 38.7808C28.4401 38.7517 28.4519 38.7081 28.4519 38.6726C28.4519 38.6279 28.4326 38.5954 28.413 38.5775C28.3989 38.564 28.3656 38.544 28.3427 38.5329L28.2856 38.5048C28.2663 38.496 28.2242 38.4733 28.2003 38.4476C28.1811 38.4263 28.1592 38.3908 28.1592 38.3326C28.1592 38.2801 28.1742 38.2331 28.2154 38.1918C28.2608 38.1462 28.3137 38.1292 28.3741 38.1292C28.4055 38.1292 28.4538 38.1336 28.4927 38.1604C28.5208 38.1793 28.5446 38.2108 28.5574 38.2453L28.4894 38.2886Z" fill="#2D2A2E"/>
<path d="M28.896 38.1414C28.9695 38.1414 29.0332 38.1614 29.0698 38.1986C29.0988 38.2277 29.1194 38.2767 29.1194 38.3393C29.1194 38.4121 29.0923 38.4669 29.0613 38.498C29.0312 38.5281 28.9728 38.563 28.8574 38.563H28.796L28.7572 38.8871H28.6775L28.766 38.1418H28.896V38.1414ZM28.8042 38.4845H28.8721C28.911 38.4845 28.9639 38.4801 29.0015 38.4442C29.0231 38.4242 29.0404 38.3904 29.0404 38.3414C29.0404 38.291 29.0211 38.2619 29.0005 38.2463C28.9714 38.223 28.927 38.2196 28.8947 38.2196H28.8352L28.8042 38.4845Z" fill="#2D2A2E"/>
<path d="M29.6578 38.2487H29.3706L29.3491 38.4374H29.6274L29.6143 38.5447H29.336L29.3079 38.7795H29.5951L29.582 38.8867H29.1848L29.2733 38.1414H29.6705L29.6578 38.2487Z" fill="#2D2A2E"/>
<path d="M30.219 38.2487H29.9319L29.9103 38.4374H30.1886L30.1756 38.5447H29.8972L29.8692 38.7795H30.1563L30.1432 38.8867H29.746L29.8345 38.1414H30.2317L30.219 38.2487Z" fill="#2D2A2E"/>
<path d="M30.5952 38.1414C30.6697 38.1414 30.7896 38.1526 30.8703 38.2365C30.9176 38.2855 30.9565 38.3674 30.9565 38.4845C30.9565 38.6553 30.8811 38.7484 30.8441 38.7839C30.7612 38.8654 30.6478 38.8867 30.5172 38.8867H30.296L30.3845 38.1414H30.5952ZM30.4799 38.7416H30.5306C30.5792 38.7416 30.6557 38.7382 30.7141 38.6844C30.7553 38.6465 30.7863 38.5772 30.7863 38.4889C30.7863 38.4229 30.7657 38.3705 30.7344 38.339C30.6998 38.3045 30.6406 38.2866 30.5845 38.2866H30.5338L30.4799 38.7416Z" fill="#2D2A2E"/>
<path d="M31.2211 38.5393L31.0108 38.1414H31.2006L31.3182 38.3728L31.4896 38.1414H31.6925L31.3871 38.5393L31.3462 38.8867H31.18L31.2211 38.5393Z" fill="#2D2A2E"/>
<path d="M32.0446 38.5606L32.0057 38.8871H31.8235L31.8633 38.5552L31.6797 38.1418H31.8816L31.9313 38.2616C31.9603 38.333 31.9626 38.3377 31.9701 38.3621C31.9724 38.3678 31.9744 38.3766 31.9777 38.3868C31.9875 38.3678 31.9969 38.3522 32.0133 38.3276L32.1374 38.1422H32.3585L32.0446 38.5606Z" fill="#2D2A2E"/>
<path d="M36.4512 30.705V32.4466H24.1032V30.705C24.1032 30.3336 24.3958 30.0305 24.7544 30.0305H35.8042C36.1627 30.0305 36.4512 30.3336 36.4512 30.705Z" fill="#0D1D28"/>
<path d="M57.6315 35.4646C57.9046 35.4646 58.1261 35.2352 58.1261 34.9523C58.1261 34.6694 57.9046 34.4401 57.6315 34.4401C57.3583 34.4401 57.1369 34.6694 57.1369 34.9523C57.1369 35.2352 57.3583 35.4646 57.6315 35.4646Z" fill="white"/>
<path d="M57.6313 35.5713C57.3016 35.5713 57.0337 35.2938 57.0337 34.9523C57.0337 34.6108 57.3016 34.3334 57.6313 34.3334C57.9611 34.3334 58.229 34.6108 58.229 34.9523C58.2248 35.2938 57.9569 35.5713 57.6313 35.5713ZM57.6313 34.5468C57.417 34.5468 57.2398 34.7261 57.2398 34.9523C57.2398 35.1743 57.4129 35.3579 57.6313 35.3579C57.8457 35.3579 58.0229 35.1786 58.0229 34.9523C58.0188 34.7304 57.8457 34.5468 57.6313 34.5468Z" fill="black"/>
<path d="M61.9467 32.7926H61.7407V36.7368H61.9467V32.7926Z" fill="white"/>
<path d="M49.6644 24.4685C49.6644 24.4685 52.8915 24.1483 52.5247 24.1483C52.5247 24.1483 52.1249 21.4591 49.4254 22.253C48.5475 22.5091 47.2327 23.8324 48.1848 25.8045C48.2961 26.0308 48.5475 26.2186 48.8401 26.1802C48.8442 26.1802 49.6809 26.2271 49.6644 24.4685Z" fill="#2D2A2E"/>
<path d="M48.7659 26.2912C48.4527 26.2912 48.2013 26.0735 48.0941 25.8515C47.5913 24.81 47.7355 24.0075 47.9457 23.5123C48.259 22.7738 48.9019 22.2957 49.3965 22.1506C50.2538 21.8987 50.975 21.9628 51.5438 22.3427C52.3269 22.8635 52.5618 23.8068 52.6154 24.0672C52.6484 24.0928 52.6566 24.127 52.6566 24.1483C52.6607 24.2508 52.5783 24.2636 52.4423 24.2807C52.3681 24.2892 52.2568 24.3063 52.1126 24.3191C51.8735 24.3447 51.5397 24.3831 51.1193 24.4258C50.5546 24.4856 49.9859 24.541 49.7674 24.5624C49.7633 25.271 49.6149 25.7747 49.3306 26.0607C49.1204 26.2698 48.9019 26.2827 48.8525 26.2827C48.8195 26.2912 48.7948 26.2912 48.7659 26.2912ZM50.3568 22.2146C50.0765 22.2146 49.7757 22.2616 49.4542 22.3555C49.005 22.4878 48.4238 22.9232 48.1353 23.5977C47.8592 24.2422 47.9086 24.9893 48.2796 25.7533C48.3661 25.9326 48.5722 26.1076 48.8319 26.0735H48.8401H48.8483C48.8525 26.0735 49.0214 26.0778 49.1904 25.9027C49.3635 25.7277 49.5696 25.335 49.5572 24.4685V24.3703L49.652 24.3618C50.6 24.2679 51.9889 24.1227 52.4052 24.0672C52.3434 23.7898 52.1084 22.9616 51.4325 22.5134C51.1234 22.3171 50.7648 22.2146 50.3568 22.2146Z" fill="black"/>
<path d="M49.6068 24.3702L52.4053 23.986C52.5578 23.9647 52.702 24.0415 52.7721 24.1824C52.8916 24.4172 52.7474 24.7032 52.4918 24.7331C51.8035 24.8184 50.5588 24.8782 49.6068 24.3702Z" fill="white"/>
<path d="M51.6058 24.8952C50.9628 24.8952 50.2003 24.8013 49.5615 24.4641L49.2689 24.3061L52.393 23.8793C52.5867 23.8537 52.7763 23.9561 52.8669 24.1311C52.9411 24.272 52.9411 24.4385 52.8711 24.5836C52.801 24.7245 52.665 24.8226 52.5125 24.8397C52.2693 24.8696 51.9561 24.8952 51.6058 24.8952ZM49.986 24.4257C50.8639 24.7586 51.9025 24.7031 52.4836 24.6305C52.5702 24.6177 52.6444 24.5665 52.6856 24.4854C52.7268 24.4043 52.7268 24.3147 52.6856 24.2336C52.6361 24.1354 52.529 24.0799 52.4218 24.0927L49.986 24.4257Z" fill="black"/>
<path d="M48.1808 24.2295C48.1272 24.2253 48.0901 24.174 48.1025 24.1186C48.1396 23.935 48.2509 23.5338 48.5723 23.1325C48.6053 23.0898 48.663 23.0855 48.7001 23.124C48.7372 23.1581 48.7413 23.2136 48.7083 23.252C48.4116 23.6234 48.3086 23.999 48.2756 24.157C48.2673 24.2039 48.2261 24.2338 48.1808 24.2295Z" fill="white"/>
<path d="M71.1704 48.8554C70.5769 48.2492 69.8845 47.8608 69.357 47.626C69.2787 47.5919 69.2416 47.4979 69.2704 47.4168C69.3034 47.3315 69.3982 47.293 69.4765 47.3272C70.0329 47.5705 70.7583 47.9803 71.3889 48.6249C71.4507 48.6889 71.4507 48.7956 71.3889 48.8596C71.3271 48.9194 71.2281 48.9194 71.1704 48.8554Z" fill="white"/>
<path d="M68.6112 47.3485C68.5164 47.3186 68.434 47.2973 68.3721 47.2802C68.2897 47.2589 68.2402 47.1778 68.2567 47.0924C68.2732 46.9985 68.3598 46.943 68.4504 46.9643C68.5164 46.9814 68.6029 47.0028 68.706 47.0369C68.7884 47.0625 68.8379 47.1564 68.809 47.2418C68.7802 47.3272 68.6936 47.3741 68.6112 47.3485Z" fill="white"/>
<path d="M43.0598 27.5151H36.6018V27.7004H43.0598V27.5151Z" fill="white"/>
<path d="M43.0634 29.9202H40.7664V30.1055H43.0634V29.9202Z" fill="white"/>
<path d="M50.0122 0C22.3906 0 0 17.1348 0 38.2959C0 59.4569 50.0122 110 50.0122 110C50.0122 110 100 59.4569 100 38.2959C100 17.1348 77.6338 0 50.0122 0ZM50.0122 63.6517C31.7282 63.6517 16.9152 52.3034 16.9152 38.2959C16.9152 24.2884 31.7282 12.9401 50.0122 12.9401C68.2963 12.9401 83.1093 24.2884 83.1093 38.2959C83.1093 52.3034 68.2963 63.6517 50.0122 63.6517Z" fill="#F5BF00"/>
<path d="M25.489 72.636H22.607L22.145 74H20.176L22.97 66.278H25.148L27.942 74H25.951L25.489 72.636ZM25.005 71.184L24.048 68.357L23.102 71.184H25.005ZM30.6734 65.86V74H28.7924V65.86H30.6734ZM33.9175 65.86V74H32.0365V65.86H33.9175ZM38.0746 74.088C37.4733 74.088 36.9306 73.9597 36.4466 73.703C35.97 73.4463 35.5923 73.0797 35.3136 72.603C35.0423 72.1263 34.9066 71.569 34.9066 70.931C34.9066 70.3003 35.046 69.7467 35.3246 69.27C35.6033 68.786 35.9846 68.4157 36.4686 68.159C36.9526 67.9023 37.4953 67.774 38.0966 67.774C38.698 67.774 39.2406 67.9023 39.7246 68.159C40.2086 68.4157 40.59 68.786 40.8686 69.27C41.1473 69.7467 41.2866 70.3003 41.2866 70.931C41.2866 71.5617 41.1436 72.119 40.8576 72.603C40.579 73.0797 40.194 73.4463 39.7026 73.703C39.2186 73.9597 38.676 74.088 38.0746 74.088ZM38.0746 72.46C38.434 72.46 38.7383 72.328 38.9876 72.064C39.2443 71.8 39.3726 71.4223 39.3726 70.931C39.3726 70.4397 39.248 70.062 38.9986 69.798C38.7566 69.534 38.456 69.402 38.0966 69.402C37.73 69.402 37.4256 69.534 37.1836 69.798C36.9416 70.0547 36.8206 70.4323 36.8206 70.931C36.8206 71.4223 36.938 71.8 37.1726 72.064C37.4146 72.328 37.7153 72.46 38.0746 72.46ZM41.9105 70.931C41.9105 70.293 42.0389 69.7357 42.2955 69.259C42.5595 68.7823 42.9225 68.4157 43.3845 68.159C43.8539 67.9023 44.3892 67.774 44.9905 67.774C45.7605 67.774 46.4022 67.9757 46.9155 68.379C47.4362 68.7823 47.7772 69.3507 47.9385 70.084H45.9365C45.7679 69.6147 45.4415 69.38 44.9575 69.38C44.6129 69.38 44.3379 69.5157 44.1325 69.787C43.9272 70.051 43.8245 70.4323 43.8245 70.931C43.8245 71.4297 43.9272 71.8147 44.1325 72.086C44.3379 72.35 44.6129 72.482 44.9575 72.482C45.4415 72.482 45.7679 72.2473 45.9365 71.778H47.9385C47.7772 72.4967 47.4362 73.0613 46.9155 73.472C46.3949 73.8827 45.7532 74.088 44.9905 74.088C44.3892 74.088 43.8539 73.9597 43.3845 73.703C42.9225 73.4463 42.5595 73.0797 42.2955 72.603C42.0389 72.1263 41.9105 71.569 41.9105 70.931ZM48.5707 70.92C48.5707 70.2893 48.688 69.7357 48.9227 69.259C49.1647 68.7823 49.491 68.4157 49.9017 68.159C50.3124 67.9023 50.7707 67.774 51.2767 67.774C51.7094 67.774 52.087 67.862 52.4097 68.038C52.7397 68.214 52.9927 68.445 53.1687 68.731V67.862H55.0497V74H53.1687V73.131C52.9854 73.417 52.7287 73.648 52.3987 73.824C52.076 74 51.6984 74.088 51.2657 74.088C50.767 74.088 50.3124 73.9597 49.9017 73.703C49.491 73.439 49.1647 73.0687 48.9227 72.592C48.688 72.108 48.5707 71.5507 48.5707 70.92ZM53.1687 70.931C53.1687 70.4617 53.0367 70.0913 52.7727 69.82C52.516 69.5487 52.2007 69.413 51.8267 69.413C51.4527 69.413 51.1337 69.5487 50.8697 69.82C50.613 70.084 50.4847 70.4507 50.4847 70.92C50.4847 71.3893 50.613 71.7633 50.8697 72.042C51.1337 72.3133 51.4527 72.449 51.8267 72.449C52.2007 72.449 52.516 72.3133 52.7727 72.042C53.0367 71.7707 53.1687 71.4003 53.1687 70.931ZM59.8315 72.405V74H58.8745C58.1925 74 57.6608 73.835 57.2795 73.505C56.8982 73.1677 56.7075 72.6213 56.7075 71.866V69.424H55.9595V67.862H56.7075V66.366H58.5885V67.862H59.8205V69.424H58.5885V71.888C58.5885 72.0713 58.6325 72.2033 58.7205 72.284C58.8085 72.3647 58.9552 72.405 59.1605 72.405H59.8315ZM61.8253 67.224C61.4953 67.224 61.2239 67.1287 61.0113 66.938C60.8059 66.74 60.7033 66.498 60.7033 66.212C60.7033 65.9187 60.8059 65.6767 61.0113 65.486C61.2239 65.288 61.4953 65.189 61.8253 65.189C62.1479 65.189 62.4119 65.288 62.6173 65.486C62.8299 65.6767 62.9363 65.9187 62.9363 66.212C62.9363 66.498 62.8299 66.74 62.6173 66.938C62.4119 67.1287 62.1479 67.224 61.8253 67.224ZM62.7603 67.862V74H60.8793V67.862H62.7603ZM67.8634 67.796C68.5821 67.796 69.1541 68.0307 69.5794 68.5C70.0121 68.962 70.2284 69.6 70.2284 70.414V74H68.3584V70.667C68.3584 70.2563 68.2521 69.9373 68.0394 69.71C67.8267 69.4827 67.5407 69.369 67.1814 69.369C66.8221 69.369 66.5361 69.4827 66.3234 69.71C66.1107 69.9373 66.0044 70.2563 66.0044 70.667V74H64.1234V67.862H66.0044V68.676C66.1951 68.4047 66.4517 68.192 66.7744 68.038C67.0971 67.8767 67.4601 67.796 67.8634 67.796ZM73.8675 67.774C74.3002 67.774 74.6778 67.862 75.0005 68.038C75.3305 68.214 75.5835 68.445 75.7595 68.731V67.862H77.6405V73.989C77.6405 74.5537 77.5268 75.0633 77.2995 75.518C77.0795 75.98 76.7385 76.3467 76.2765 76.618C75.8218 76.8893 75.2535 77.025 74.5715 77.025C73.6622 77.025 72.9252 76.8087 72.3605 76.376C71.7958 75.9507 71.4732 75.3713 71.3925 74.638H73.2515C73.3102 74.8727 73.4495 75.056 73.6695 75.188C73.8895 75.3273 74.1608 75.397 74.4835 75.397C74.8722 75.397 75.1802 75.2833 75.4075 75.056C75.6422 74.836 75.7595 74.4803 75.7595 73.989V73.12C75.5762 73.406 75.3232 73.6407 75.0005 73.824C74.6778 74 74.3002 74.088 73.8675 74.088C73.3615 74.088 72.9032 73.9597 72.4925 73.703C72.0818 73.439 71.7555 73.0687 71.5135 72.592C71.2788 72.108 71.1615 71.5507 71.1615 70.92C71.1615 70.2893 71.2788 69.7357 71.5135 69.259C71.7555 68.7823 72.0818 68.4157 72.4925 68.159C72.9032 67.9023 73.3615 67.774 73.8675 67.774ZM75.7595 70.931C75.7595 70.4617 75.6275 70.0913 75.3635 69.82C75.1068 69.5487 74.7915 69.413 74.4175 69.413C74.0435 69.413 73.7245 69.5487 73.4605 69.82C73.2038 70.084 73.0755 70.4507 73.0755 70.92C73.0755 71.3893 73.2038 71.7633 73.4605 72.042C73.7245 72.3133 74.0435 72.449 74.4175 72.449C74.7915 72.449 75.1068 72.3133 75.3635 72.042C75.6275 71.7707 75.7595 71.4003 75.7595 70.931Z" fill="black"/>
<path d="M66.5 19.1667C65.2639 19.1667 64.0555 19.5088 63.0277 20.1498C61.9999 20.7907 61.1988 21.7018 60.7258 22.7677C60.2527 23.8336 60.1289 25.0065 60.3701 26.138C60.6113 27.2696 61.2065 28.309 62.0806 29.1248C62.9547 29.9406 64.0683 30.4962 65.2807 30.7212C66.4931 30.9463 67.7497 30.8308 68.8918 30.3893C70.0338 29.9478 71.0099 29.2001 71.6967 28.2408C72.3834 27.2815 72.75 26.1537 72.75 25C72.7482 23.4534 72.0891 21.9707 70.9174 20.8771C69.7457 19.7835 68.157 19.1684 66.5 19.1667V19.1667ZM66.5 29.6667C65.5111 29.6667 64.5444 29.393 63.7222 28.8802C62.8999 28.3674 62.259 27.6386 61.8806 26.7859C61.5022 25.9331 61.4032 24.9948 61.5961 24.0896C61.789 23.1843 62.2652 22.3528 62.9645 21.7002C63.6637 21.0475 64.5546 20.6031 65.5246 20.423C66.4945 20.2429 67.4998 20.3354 68.4134 20.6886C69.3271 21.0418 70.1079 21.6399 70.6574 22.4073C71.2068 23.1748 71.5 24.077 71.5 25C71.4985 26.2372 70.9712 27.4234 70.0339 28.2983C69.0965 29.1731 67.8256 29.6652 66.5 29.6667V29.6667ZM66.5 24.7083C66.3342 24.7083 66.1753 24.7698 66.0581 24.8792C65.9409 24.9886 65.875 25.137 65.875 25.2917V27.0417C65.875 27.1964 65.9409 27.3447 66.0581 27.4541C66.1753 27.5635 66.3342 27.625 66.5 27.625C66.6658 27.625 66.8247 27.5635 66.9419 27.4541C67.0592 27.3447 67.125 27.1964 67.125 27.0417V25.2917C67.125 25.137 67.0592 24.9886 66.9419 24.8792C66.8247 24.7698 66.6658 24.7083 66.5 24.7083ZM66.5 22.375C66.3455 22.375 66.1944 22.4178 66.066 22.4979C65.9375 22.578 65.8374 22.6919 65.7782 22.8251C65.7191 22.9584 65.7036 23.105 65.7338 23.2464C65.7639 23.3879 65.8383 23.5178 65.9476 23.6198C66.0568 23.7217 66.196 23.7912 66.3476 23.8193C66.4991 23.8475 66.6562 23.833 66.799 23.7778C66.9417 23.7226 67.0637 23.6292 67.1496 23.5093C67.2354 23.3894 67.2813 23.2484 67.2813 23.1042C67.2813 22.9108 67.1989 22.7253 67.0524 22.5886C66.9059 22.4518 66.7072 22.375 66.5 22.375V22.375Z" fill="black"/>
</svg>
