<svg width="800" height="800" viewBox="0 0 800 800" fill="none" xmlns="http://www.w3.org/2000/svg">
<path fill-rule="evenodd" clip-rule="evenodd" d="M503.003 66.668H136.337V433.335H203.003V366.668V331.668V133.335H475.337L603.003 261.001V331.668V366.668V433.335H669.67V233.335L503.003 66.668ZM133.707 700.001V500.044H178.722V664.723H264.66V700.001H133.707ZM373.035 496.516C404.456 496.516 428.54 506.488 445.285 526.432C461.372 545.529 469.416 570.083 469.416 600.093C469.416 632.926 459.914 659.031 440.911 678.411C424.541 695.156 401.916 703.529 373.035 703.529C341.614 703.529 317.531 693.557 300.785 673.613C284.698 654.516 276.655 629.586 276.655 598.823C276.655 566.649 286.156 540.873 305.16 521.493C321.623 504.842 344.248 496.516 373.035 496.516ZM372.894 531.794C356.619 531.794 344.06 538.568 335.217 552.115C327.22 564.344 323.222 580.055 323.222 599.246C323.222 621.448 327.973 638.664 337.475 650.894C346.412 662.465 358.265 668.251 373.035 668.251C389.216 668.251 401.822 661.43 410.854 647.789C418.85 635.748 422.848 619.849 422.848 600.093C422.848 578.362 418.097 561.381 408.596 549.151C399.659 537.58 387.758 531.794 372.894 531.794ZM671.066 588.099V690.123C659.589 693.98 651.499 696.521 646.795 697.744C632.213 701.601 616.55 703.529 599.804 703.529C566.878 703.529 541.807 695.251 524.591 678.693C505.493 660.443 495.945 634.995 495.945 602.351C495.945 564.815 507.798 536.498 531.505 517.401C548.721 503.478 571.958 496.516 601.215 496.516C626.239 496.516 649.523 501.079 671.066 510.204L655.685 545.341C645.525 540.261 636.635 536.71 629.015 534.687C621.395 532.664 613.022 531.653 603.897 531.653C582.071 531.653 565.984 538.756 555.636 552.961C546.887 565.003 542.512 580.855 542.512 600.516C542.512 624.129 549.097 641.91 562.268 653.857C572.805 663.453 585.881 668.251 601.498 668.251C610.623 668.251 619.278 666.699 627.462 663.594V623.377H593.031V588.099H671.066Z" fill="white"/>
</svg>
