<svg width="487" height="468" viewBox="0 0 487 468" fill="none" xmlns="http://www.w3.org/2000/svg">
<g clip-path="url(#clip0_20_96)">
<path d="M147.525 142.604C147.525 175.362 124.127 201.919 95.2645 201.919C66.4048 201.919 43.0118 175.362 43.0118 142.604C43.0118 109.849 66.4048 83.2947 95.2645 83.2947C124.127 83.2947 147.525 109.849 147.525 142.604Z" fill="white"/>
<path d="M154.83 247.2C158.604 244.989 162.78 243.547 167.104 242.859C158.324 230.953 152.102 218.182 148.508 202.897C147.525 197.311 139.567 196.656 133.65 201.289C122.58 209.961 109.668 215.764 95.2621 215.764C80.5791 215.764 67.0721 210.151 56.2437 200.756C52.7884 197.756 47.6968 197.302 43.7205 199.635C23.1618 211.705 7.59967 230.86 0.810894 253.611C-1.01292 259.707 0.267916 266.294 4.24671 271.367C8.23036 276.436 14.4542 279.424 21.0628 279.424H115.219C126.491 266.928 139.793 256.019 154.83 247.2Z" fill="white"/>
<path d="M339.478 142.604C339.478 175.362 362.873 201.919 391.735 201.919C420.6 201.919 443.991 175.362 443.991 142.604C443.991 109.849 420.6 83.2947 391.735 83.2947C362.873 83.2947 339.478 109.849 339.478 142.604Z" fill="white"/>
<path d="M332.171 247.2C328.396 244.989 324.218 243.547 319.896 242.859C328.676 230.953 334.898 218.182 338.492 202.897C339.478 197.311 347.436 196.656 353.353 201.289C364.422 209.961 377.333 215.764 391.738 215.764C406.419 215.764 419.928 210.151 430.759 200.756C434.214 197.756 439.303 197.302 443.28 199.635C463.841 211.705 479.405 230.86 486.189 253.611C488.011 259.707 486.732 266.294 482.756 271.367C478.77 276.436 472.548 279.424 465.942 279.424H371.781C360.509 266.928 347.209 256.019 332.171 247.2Z" fill="white"/>
<path d="M385.887 345.035C375.664 310.745 352.479 281.75 321.783 263.154C315.727 259.49 307.867 260.082 302.495 264.631C286.02 278.575 265.634 286.875 243.5 286.875C220.93 286.875 200.179 278.249 183.536 263.814C178.223 259.202 170.404 258.507 164.294 262.096C132.695 280.639 108.779 310.076 98.3498 345.038C95.5471 354.416 97.5122 364.525 103.624 372.327C109.75 380.119 119.313 384.708 129.472 384.708H354.765C364.926 384.708 374.496 380.133 380.62 372.327C386.734 364.523 388.689 354.423 385.887 345.035Z" fill="white"/>
<path d="M323.809 174.44C323.809 224.78 287.854 265.595 243.5 265.595C199.149 265.595 163.196 224.78 163.196 174.44C163.196 124.095 199.149 83.2947 243.5 83.2947C287.856 83.2947 323.809 124.097 323.809 174.44Z" fill="white"/>
</g>
<defs>
<clipPath id="clip0_20_96">
<rect width="487" height="468" fill="white"/>
</clipPath>
</defs>
</svg>
