<svg width="20" height="20" viewBox="0 0 20 20" fill="none" xmlns="http://www.w3.org/2000/svg">
<path d="M0.801249 20.0004H19.1996C19.3177 20.002 19.4348 19.9784 19.5431 19.9311C19.6513 19.8838 19.7481 19.8138 19.827 19.726C19.8909 19.6547 19.9389 19.5706 19.968 19.4794C19.9971 19.3882 20.0065 19.2919 19.9956 19.1968C19.7884 17.5854 19.1959 16.0477 18.2683 14.7137C17.3408 13.3797 16.1054 12.2888 14.6667 11.5332C14.0547 12.1472 13.3274 12.6343 12.5267 12.9667C11.726 13.2991 10.8675 13.4702 10.0004 13.4702C9.13341 13.4702 8.27491 13.2991 7.47417 12.9667C6.67343 12.6343 5.9462 12.1472 5.33418 11.5332C3.89552 12.2888 2.66012 13.3797 1.73253 14.7137C0.804936 16.0477 0.21246 17.5854 0.00524077 19.1968C-0.00681688 19.2937 0.00198857 19.3922 0.0310677 19.4855C0.0601469 19.5788 0.108828 19.6648 0.173853 19.7377C0.253839 19.8235 0.35114 19.8912 0.459305 19.9365C0.567469 19.9818 0.684027 20.0035 0.801249 20.0004Z" fill="white"/>
<path d="M6.15155 9.66714C6.25742 9.78082 6.37113 9.88666 6.48485 9.98858C7.53042 10.9296 8.88746 11.4503 10.2943 11.4503C11.7012 11.4503 13.0582 10.9296 14.1038 9.98858C14.2219 9.88753 14.3344 9.78023 14.441 9.66714C14.5469 9.55346 14.6528 9.43978 14.7508 9.31826C15.4296 8.47776 15.8565 7.46239 15.9823 6.38951C16.1081 5.31664 15.9276 4.23008 15.4617 3.25544C14.9958 2.2808 14.2635 1.45787 13.3494 0.88179C12.4353 0.30571 11.3768 0 10.2963 0C9.21572 0 8.15722 0.30571 7.24314 0.88179C6.32907 1.45787 5.59675 2.2808 5.13083 3.25544C4.66491 4.23008 4.48442 5.31664 4.61023 6.38951C4.73604 7.46239 5.163 8.47776 5.84177 9.31826C5.9398 9.43194 6.04567 9.55346 6.15155 9.66714Z" fill="white"/>
</svg>
