<svg width="800" height="800" viewBox="0 0 800 800" fill="none" xmlns="http://www.w3.org/2000/svg">
<path d="M533.333 33.332C588.563 33.332 633.333 78.1037 633.333 133.332C633.333 151.741 618.41 166.665 600 166.665C581.59 166.665 566.667 151.741 566.667 133.332C566.667 114.923 551.743 99.9987 533.333 99.9987H133.333C114.924 99.9987 100 114.923 100 133.332V666.665C100 685.075 114.924 699.999 133.333 699.999H533.333C551.743 699.999 566.667 685.075 566.667 666.665V633.332C566.667 614.922 581.59 599.999 600 599.999C618.41 599.999 633.333 614.922 633.333 633.332V666.665C633.333 721.895 588.563 766.665 533.333 766.665H133.333C78.105 766.665 33.3334 721.895 33.3334 666.665V133.332C33.3334 78.1037 78.105 33.332 133.333 33.332H533.333Z" fill="white"/>
<path fill-rule="evenodd" clip-rule="evenodd" d="M693.303 273.362C683.31 263.367 667.107 263.367 657.11 273.362L397.22 533.256C392.307 538.166 389.05 544.493 387.91 551.346L382.427 584.239L415.32 578.756C422.173 577.616 428.5 574.359 433.41 569.449L693.303 309.555C703.3 299.56 703.3 283.356 693.303 273.362ZM609.97 226.221C646 190.192 704.417 190.192 740.447 226.221C776.473 262.251 776.473 320.666 740.447 356.696L480.553 616.589C465.813 631.326 446.84 641.089 426.28 644.516L393.387 649.999C348.267 657.519 309.147 618.403 316.667 573.279L322.149 540.386C325.576 519.826 335.34 500.853 350.077 486.113L609.97 226.221Z" fill="white"/>
<path d="M166.667 233.333C166.667 214.924 181.591 200 200 200H466.667C485.077 200 500 214.924 500 233.333C500 251.743 485.077 266.667 466.667 266.667H200C181.591 266.667 166.667 251.743 166.667 233.333Z" fill="white"/>
<path d="M166.667 366.665C166.667 348.255 181.591 333.332 200 333.332H333.333C351.743 333.332 366.667 348.255 366.667 366.665C366.667 385.075 351.743 399.999 333.333 399.999H200C181.591 399.999 166.667 385.075 166.667 366.665Z" fill="white"/>
<path d="M166.667 500.001C166.667 481.591 181.591 466.668 200 466.668H233.333C251.743 466.668 266.667 481.591 266.667 500.001C266.667 518.411 251.743 533.335 233.333 533.335H200C181.591 533.335 166.667 518.411 166.667 500.001Z" fill="white"/>
</svg>
