<svg width="20" height="20" viewBox="0 0 20 20" fill="none" xmlns="http://www.w3.org/2000/svg">
<path d="M17.7775 0.650613L0.650787 17.7773L2.22212 19.3487L19.3489 2.22195L17.7775 0.650613Z" fill="white"/>
<path d="M4.44444 8.88888C6.89889 8.88888 8.88889 6.89888 8.88889 4.44444C8.88889 1.99 6.89889 0 4.44444 0C1.99 0 0 1.99 0 4.44444C0 6.89888 1.99 8.88888 4.44444 8.88888ZM4.44444 2.22222C5.67 2.22222 6.66667 3.21889 6.66667 4.44444C6.66667 5.66999 5.67 6.66666 4.44444 6.66666C3.21889 6.66666 2.22222 5.66999 2.22222 4.44444C2.22222 3.21889 3.21889 2.22222 4.44444 2.22222Z" fill="white"/>
<path d="M15.5556 20.0002C18.01 20.0002 20 18.0102 20 15.5558C20 13.1013 18.01 11.1113 15.5556 11.1113C13.1011 11.1113 11.1111 13.1013 11.1111 15.5558C11.1111 18.0102 13.1011 20.0002 15.5556 20.0002ZM15.5556 13.3335C16.7811 13.3335 17.7778 14.3302 17.7778 15.5558C17.7778 16.7813 16.7811 17.778 15.5556 17.778C14.33 17.778 13.3333 16.7813 13.3333 15.5558C13.3333 14.3302 14.33 13.3335 15.5556 13.3335Z" fill="white"/>
</svg>
