<svg width="800" height="800" viewBox="0 0 800 800" fill="none" xmlns="http://www.w3.org/2000/svg">
<path d="M631.25 150C641.605 150 650 141.605 650 131.25V68.75C650 58.3953 641.605 50 631.25 50H168.75C158.395 50 150 58.3953 150 68.75V138.669C150 149.023 158.395 157.419 168.75 157.419H302C344.669 157.419 377.408 172.978 397.266 200H168.75C158.395 200 150 208.395 150 218.75V281.25C150 291.605 158.395 300 168.75 300H416.808C407.094 356.384 365.306 391.613 300 391.613H168.75C158.395 391.613 150 400.008 150 410.362V493.194C150 498.427 152.188 503.422 156.033 506.972L413.927 745.028C417.39 748.225 421.93 750 426.644 750H555.647C572.716 750 580.906 729.05 568.364 717.472L332.611 499.853C452.141 496.197 537.523 416.423 548.733 300H631.25C641.605 300 650 291.605 650 281.25V218.75C650 208.395 641.605 200 631.25 200H539.547C534.1 181.967 526.609 165.241 517.278 150H631.25Z" fill="white"/>
</svg>
