<?xml version="1.0" encoding="UTF-8"?>
<svg id="Layer_2" data-name="Layer 2" xmlns="http://www.w3.org/2000/svg" viewBox="0 0 240.77 258.24">
  <defs>
    <style>
      .cls-1 {
        fill: #fff;
      }
    </style>
  </defs>
  <g id="Layer_1-2" data-name="Layer 1">
    <g>
      <path class="cls-1" d="m192.44,120.83c6.74-27.26,1.41-56.48-15.17-79.81C158.72,15.17,129.77,0,97.74,0S35.92,15.46,17.37,42.15C-.89,68.57-5.11,102,6.41,131.51c3.09,8.15,7.87,16.02,14.05,23.32l70.81,83.18c1.69,1.97,3.93,3.09,6.46,3.09s4.78-1.12,6.46-3.09l8.43-9.84c12.65,17.98,33.72,30.07,57.61,30.07,38.78,0,70.53-31.75,70.53-70.53,0-30.91-20.23-57.32-48.33-66.88Zm-94.7,98.91l-64.35-75.59c-5.06-5.9-8.71-12.08-11.24-18.27-9.27-24.45-5.9-51.99,9.27-73.9,15.17-22.2,39.34-34.84,66.32-34.84s50.58,12.36,65.75,34c13.77,19.67,18.27,44.12,12.36,66.6-1.97-.28-3.65-.28-5.62-.28-13.21,0-25.29,3.65-35.97,9.84,6.74-8.15,10.68-18.55,10.68-29.79,0-26.13-21.08-47.21-47.21-47.21s-47.21,21.08-47.21,47.21,21.08,47.21,47.21,47.21c7.59,0,14.89-1.97,21.36-5.06-11.8,12.65-19.39,29.79-19.39,48.33,0,8.71,1.69,16.86,4.5,24.45l-6.46,7.31Zm0-91.89c-16.86,0-30.35-13.49-30.35-30.35s13.77-30.63,30.35-30.63,30.35,13.49,30.35,30.35-13.49,30.63-30.35,30.63Zm72.5,113.81c-29.51,0-53.67-24.17-53.67-53.67s24.17-53.67,53.67-53.67,53.67,24.17,53.67,53.67c0,29.51-23.89,53.67-53.67,53.67Z"/>
      <g>
        <path class="cls-1" d="m196.04,167.03c1.21-1.21,1.21-3.18,0-4.39-1.17-1.18-3.22-1.18-4.4,0l-6.34,6.34c-4.64-2.01-9.57-3.03-14.65-3.03-22.64,0-33.87,19.73-34.33,20.57-.53.95-.53,2.08,0,3.02.2.36,4.8,8.54,13.96,14.47l-5.01,5.01c-1.21,1.21-1.21,3.18,0,4.39.59.59,1.37.91,2.2.91s1.61-.32,2.2-.91l46.37-46.37h0Zm-22.83,14.04l-9.51,9.51c-.32-.83-.48-1.68-.48-2.56,0-4.1,3.33-7.43,7.43-7.43.87,0,1.73.16,2.56.48Zm-16.2,6.95c0,2.56.71,5.02,2.06,7.19l-4.21,4.21c-6.44-3.84-10.58-9.16-12.13-11.41,3-4.37,12.38-15.86,27.93-15.86,3.35,0,6.65.55,9.82,1.64l-2.63,2.63c-2.17-1.35-4.63-2.06-7.19-2.06-7.52,0-13.65,6.12-13.65,13.65Z"/>
        <path class="cls-1" d="m204.99,186.51c-.16-.28-3.96-7.03-11.39-12.68l-.69-.53-4.51,4.51.94.69c4.74,3.49,7.86,7.51,9.26,9.53-3,4.37-12.38,15.86-27.93,15.86-2.27,0-4.51-.27-6.86-.81l-.54-.13-5.03,5.03,1.59.49c3.54,1.08,7.18,1.63,10.84,1.63,22.65,0,33.87-19.73,34.33-20.57.53-.95.53-2.07,0-3.02Z"/>
        <path class="cls-1" d="m178.06,188.14l-.03.37c-.25,3.67-3.21,6.63-6.88,6.88l-.37.03-5.32,5.32,1.67.45c1.18.32,2.37.48,3.52.48,7.52,0,13.65-6.12,13.65-13.65,0-1.15-.16-2.34-.48-3.52l-.45-1.67-5.32,5.32Z"/>
      </g>
    </g>
  </g>
</svg>