<svg width="800" height="800" viewBox="0 0 800 800" fill="none" xmlns="http://www.w3.org/2000/svg">
<g clip-path="url(#clip0_640_10)">
<path d="M97 732.333H257V599H97V732.333ZM137 625.665H217C224.36 625.665 230.333 631.639 230.333 638.998C230.333 646.358 224.36 652.331 217 652.331H137C129.641 652.331 123.667 646.358 123.667 638.998C123.667 631.639 129.639 625.665 137 625.665ZM137 679H190.333C197.692 679 203.666 684.973 203.666 692.333C203.666 699.692 197.692 705.666 190.333 705.666H137C129.641 705.666 123.667 699.692 123.667 692.333C123.667 684.973 129.639 679 137 679Z" fill="white"/>
<path d="M296.334 327.666C299.281 327.666 302.228 328.64 304.667 330.586L349.667 366.586V221H243V366.586L288 330.586C290.44 328.64 293.387 327.666 296.334 327.666Z" fill="white"/>
<path d="M394.667 233.062C394.667 228.985 395.024 225.004 395.296 221H370V355.146C370 364.049 364.894 371.986 356.693 375.834C348.491 379.681 338.971 378.644 331.866 373.072L296 345.014L260.135 373.072C255.866 376.414 250.724 378.125 245.52 378.125C242.054 378.138 238.576 377.377 235.307 375.834C227.105 371.986 222 364.049 222 355.146V221H61.05C27.38 221 0 248.055 0 281.313V739.686C0 772.943 27.38 800 61.05 800H530.332C564.335 800 592 772.944 592 739.686V413.384C587.905 413.65 583.835 413.999 579.667 413.999C477.656 413.999 394.667 332.832 394.667 233.062ZM271.333 739.686C271.333 746.345 265.807 751.749 259 751.749H86.3329C79.5254 751.749 74 746.345 74 739.686V594.937C74 588.28 79.5254 582.875 86.3329 582.875H259C265.807 582.875 271.333 588.28 271.333 594.937V739.686Z" fill="white"/>
<path d="M530.001 21C467.677 21 417 66.0968 417 121.526H473.458C473.458 96.2894 498.813 75.7397 530.001 75.7397C561.186 75.7397 586.54 96.2894 586.54 121.526V129.471C586.54 156.294 574.367 168.816 555.89 187.741C531.797 212.431 501.788 243.203 501.788 309.18H558.256C558.256 265.003 576.167 246.604 596.921 225.33C617.463 204.291 643 178.093 643 129.471V121.526C642.999 66.0968 592.327 21 530.001 21Z" fill="white"/>
<path d="M559.918 339.79H500.82V386H559.918V339.79Z" fill="white"/>
</g>
<defs>
<clipPath id="clip0_640_10">
<rect width="800" height="800" fill="white"/>
</clipPath>
</defs>
</svg>
