<svg width="800" height="692" viewBox="0 0 800 692" fill="none" xmlns="http://www.w3.org/2000/svg">
<path d="M761.259 0.894531H38.7411C17.3444 0.894531 0 18.2389 0 39.6356V492.907C0 514.303 17.3444 531.648 38.7411 531.648H308.958V619.435H203.809C184.049 619.435 167.974 635.511 167.974 655.271C167.974 675.03 184.049 691.106 203.809 691.106H596.191C615.951 691.106 632.026 675.03 632.026 655.271C632.026 635.511 615.951 619.435 596.191 619.435H491.042V531.648H761.259C782.656 531.648 800 514.303 800 492.907V39.6356C800 18.2389 782.656 0.894531 761.259 0.894531ZM741.888 473.536H58.1117V59.0062H741.888V473.536Z" fill="white"/>
<path d="M260.706 401.798C275.356 401.798 287.246 389.912 287.246 375.262V249.051C287.246 234.4 275.354 222.52 260.706 222.52C246.054 222.52 234.178 234.4 234.178 249.051V375.26C234.178 389.912 246.053 401.798 260.706 401.798Z" fill="white"/>
<path d="M353.571 401.797C368.223 401.797 380.099 389.911 380.099 375.261V156.182C380.099 141.53 368.223 129.654 353.571 129.654C338.915 129.654 327.035 141.53 327.035 156.182V375.261C327.035 389.911 338.915 401.797 353.571 401.797Z" fill="white"/>
<path d="M446.429 401.796C461.085 401.796 472.965 389.911 472.965 375.261V211.903C472.965 197.251 461.085 185.375 446.429 185.375C431.781 185.375 419.905 197.251 419.905 211.903V375.261C419.897 389.911 431.774 401.796 446.429 401.796Z" fill="white"/>
<path d="M539.298 401.798C553.946 401.798 565.82 389.912 565.82 375.262V184.047C565.82 169.396 553.942 157.516 539.298 157.516C524.646 157.516 512.758 169.396 512.758 184.047V375.262C512.758 389.912 524.646 401.798 539.298 401.798Z" fill="white"/>
</svg>
