<svg width="175" height="168" viewBox="0 0 175 168" fill="none" xmlns="http://www.w3.org/2000/svg">
<path d="M22.9877 0V168H152.012V0H22.9877ZM119.408 17.7095C120.659 17.7095 121.696 18.7048 121.696 19.906V29.0353C121.696 32.3301 123.412 34.3551 126.129 34.3551C128.631 34.3551 130.562 32.7763 130.562 29.0353V19.906C130.562 18.7048 131.599 17.7095 132.85 17.7095H132.993C134.244 17.7095 135.281 18.7048 135.281 19.906V29.1726C135.281 35.316 130.669 38.3706 126.236 38.3706C121.731 38.3706 117.084 36.4143 117.084 29.1726V19.906C117.12 18.7048 118.156 17.7095 119.408 17.7095ZM94.7753 17.7095C94.7753 17.7095 96.3126 17.4006 97.5638 18.6018L107.288 30.8887V19.9747C107.288 18.7391 108.361 17.7095 109.648 17.7095C110.935 17.7095 112.007 18.7391 112.007 19.9747V35.9681C112.007 37.2037 110.935 38.2333 109.648 38.2333C109.648 38.2333 107.86 38.5765 106.573 37.341L97.1348 25.3287V35.8652C97.1348 37.1007 96.0623 38.1303 94.7753 38.1303C93.4883 38.1303 92.4157 37.1007 92.4157 35.8652V19.9747C92.4157 18.7391 93.4525 17.7095 94.7753 17.7095ZM61.8488 150.634H42.1144V131.689H61.8488V150.634ZM61.8488 113.705H42.1144V94.7596H61.8488V113.705ZM61.8488 76.7755H42.1144V57.8304H61.8488V76.7755ZM64.7804 38.2676C63.4934 38.2676 62.4208 37.238 62.4208 36.0025V25.3287L57.2012 35.3504C56.808 36.0711 56.0572 36.5516 55.1992 36.5516C54.3412 36.5516 53.5547 36.1054 53.1971 35.3504L47.9775 25.3287V36.0025C47.9775 37.238 46.905 38.2676 45.618 38.2676C44.331 38.2676 43.2584 37.238 43.2584 36.0025V21.4848C43.2584 19.4255 45.0102 17.7095 47.191 17.7095C48.6925 17.7095 50.0868 18.5332 50.7303 19.8374L55.2349 28.8981L59.7395 19.8374C60.383 18.5332 61.7773 17.7095 63.2789 17.7095C65.4239 17.7095 67.2114 19.3912 67.2114 21.4848V36.0025C67.1399 37.238 66.0674 38.2676 64.7804 38.2676ZM74.7906 17.7095H85.6946C86.8744 17.7095 87.8396 18.6362 87.8396 19.7687C87.8396 20.9013 86.8744 21.828 85.6946 21.828H77.1502V26.0838H84.7293C85.8376 26.0838 86.7314 26.9418 86.7314 28.0057C86.7314 29.0697 85.8376 29.9277 84.7293 29.9277H77.1502V34.1835H86.0521C87.1961 34.1835 88.1256 35.0758 88.1256 36.1741C88.1256 37.2723 87.1961 38.1647 86.0521 38.1647H74.7906C73.5036 38.1647 72.4311 37.135 72.4311 35.8995V19.9747C72.4311 18.7391 73.4678 17.7095 74.7906 17.7095ZM132.957 143.838H79.3309C77.7937 143.838 76.5424 142.637 76.5424 141.161C76.5424 139.685 77.7937 138.484 79.3309 138.484H132.957C134.494 138.484 135.746 139.685 135.746 141.161C135.746 142.637 134.494 143.838 132.957 143.838ZM132.957 106.909H79.3309C77.7937 106.909 76.5424 105.708 76.5424 104.232C76.5424 102.756 77.7937 101.555 79.3309 101.555H132.957C134.494 101.555 135.746 102.756 135.746 104.232C135.746 105.708 134.494 106.909 132.957 106.909ZM132.957 70.1173H79.3309C77.7937 70.1173 76.5424 68.916 76.5424 67.4402C76.5424 65.9645 77.7937 64.7632 79.3309 64.7632H132.957C134.494 64.7632 135.746 65.9645 135.746 67.4402C135.746 68.916 134.494 70.1173 132.957 70.1173Z" fill="white"/>
</svg>
