<svg width="94" height="147" viewBox="0 0 94 147" fill="none" xmlns="http://www.w3.org/2000/svg">
<path d="M26.5232 82.1942H67.4572C69.0133 82.1943 70.5176 81.6357 71.6955 80.6203C72.8735 79.6049 73.6466 78.2004 73.8738 76.6632C74.1011 75.1259 73.7673 73.5583 72.9333 72.2463C72.0993 70.9344 70.8209 69.9656 69.3311 69.5167V66.5063C69.3247 61.9723 67.7332 57.5829 64.8314 54.0958C61.9296 50.6087 57.8995 48.2429 53.4371 47.4068C53.9861 46.3096 54.2451 45.0904 54.1897 43.8651C54.1342 42.6398 53.7661 41.4489 53.1202 40.4056C52.4743 39.3623 51.5721 38.5012 50.4993 37.904C49.4264 37.3068 48.2185 36.9933 46.9902 36.9933C45.762 36.9933 44.554 37.3068 43.4812 37.904C42.4083 38.5012 41.5062 39.3623 40.8603 40.4056C40.2144 41.4489 39.8462 42.6398 39.7908 43.8651C39.7353 45.0904 39.9944 46.3096 40.5434 47.4068C36.081 48.2429 32.0509 50.6087 29.1491 54.0958C26.2472 57.5829 24.6557 61.9723 24.6494 66.5063V69.5167C23.1596 69.9656 21.8811 70.9344 21.0472 72.2463C20.2132 73.5583 19.8794 75.1259 20.1066 76.6632C20.3338 78.2004 21.107 79.6049 22.2849 80.6203C23.4629 81.6357 24.9671 82.1943 26.5232 82.1942ZM46.9902 41.3171C47.5603 41.3171 48.1177 41.486 48.5917 41.8023C49.0657 42.1185 49.4352 42.5681 49.6534 43.0941C49.8715 43.6201 49.9286 44.1989 49.8174 44.7572C49.7062 45.3156 49.4316 45.8285 49.0285 46.2311C48.6254 46.6337 48.1118 46.9078 47.5526 47.0189C46.9934 47.13 46.4138 47.073 45.8871 46.8551C45.3604 46.6372 44.9102 46.2683 44.5935 45.7949C44.2767 45.3215 44.1077 44.765 44.1077 44.1957C44.1085 43.4325 44.4125 42.7008 44.9529 42.1612C45.4933 41.6215 46.226 41.318 46.9902 41.3171ZM28.9736 66.5063C28.9782 62.4992 30.5742 58.6576 33.4116 55.8242C36.2489 52.9908 40.0959 51.397 44.1085 51.3924H49.8719C53.8846 51.397 57.7315 52.9908 60.5689 55.8242C63.4062 58.6576 65.0023 62.4992 65.0068 66.5063V69.24H28.9736V66.5063ZM26.5232 73.5583H67.4572C67.7411 73.5583 68.0223 73.6141 68.2845 73.7226C68.5468 73.8311 68.7851 73.9901 68.9859 74.1906C69.1866 74.3911 69.3459 74.629 69.4545 74.891C69.5632 75.1529 69.6191 75.4336 69.6191 75.7171C69.6191 76.0006 69.5632 76.2813 69.4545 76.5433C69.3459 76.8052 69.1866 77.0432 68.9859 77.2436C68.7851 77.4441 68.5468 77.6031 68.2845 77.7116C68.0223 77.8201 67.7411 77.8759 67.4572 77.8759H26.5232C26.2393 77.8759 25.9582 77.8201 25.6959 77.7116C25.4336 77.6031 25.1953 77.4441 24.9946 77.2436C24.7938 77.0432 24.6346 76.8052 24.5259 76.5433C24.4173 76.2813 24.3614 76.0006 24.3614 75.7171C24.3614 75.4336 24.4173 75.1529 24.5259 74.891C24.6346 74.629 24.7938 74.3911 24.9946 74.1906C25.1953 73.9901 25.4336 73.8311 25.6959 73.7226C25.9582 73.6141 26.2393 73.5583 26.5232 73.5583ZM78.8456 128.823H40.2156C39.6421 128.823 39.0922 129.05 38.6867 129.455C38.2812 129.86 38.0534 130.409 38.0534 130.982C38.0534 131.555 38.2812 132.104 38.6867 132.509C39.0922 132.914 39.6421 133.141 40.2156 133.141H78.8456C79.419 133.141 79.969 132.914 80.3744 132.509C80.7799 132.104 81.0077 131.555 81.0077 130.982C81.0077 130.409 80.7799 129.86 80.3744 129.455C79.969 129.05 79.419 128.823 78.8456 128.823ZM78.8456 91.0891H40.2156C39.6421 91.0891 39.0922 91.3165 38.6867 91.7214C38.2812 92.1264 38.0534 92.6755 38.0534 93.2482C38.0534 93.8208 38.2812 94.37 38.6867 94.7749C39.0922 95.1798 39.6421 95.4073 40.2156 95.4073H78.8456C79.419 95.4073 79.969 95.1798 80.3744 94.7749C80.7799 94.37 81.0077 93.8208 81.0077 93.2482C81.0077 92.6755 80.7799 92.1264 80.3744 91.7214C79.969 91.3165 79.419 91.0891 78.8456 91.0891ZM27.2428 116.732H15.1349C14.851 116.732 14.5698 116.787 14.3075 116.896C14.0451 117.004 13.8068 117.164 13.606 117.364C13.4052 117.565 13.246 117.803 13.1373 118.065C13.0287 118.326 12.9727 118.607 12.9728 118.891V130.982C12.9727 131.265 13.0287 131.546 13.1373 131.808C13.246 132.07 13.4052 132.308 13.606 132.509C13.8068 132.709 14.0451 132.868 14.3075 132.977C14.5698 133.085 14.851 133.141 15.1349 133.141H27.2428C27.5267 133.141 27.8079 133.085 28.0702 132.977C28.3326 132.868 28.5709 132.709 28.7717 132.509C28.9725 132.308 29.1317 132.07 29.2404 131.808C29.349 131.546 29.405 131.265 29.4049 130.982V118.891C29.405 118.607 29.349 118.326 29.2404 118.065C29.1317 117.803 28.9725 117.565 28.7717 117.364C28.5709 117.164 28.3326 117.004 28.0702 116.896C27.8079 116.787 27.5267 116.732 27.2428 116.732ZM25.0807 128.823H17.297V121.05H25.0807V128.823ZM88.9355 24.6093H72.3592V5.03774C72.3591 4.22134 72.1604 3.41719 71.7801 2.69449C71.3998 1.9718 70.8493 1.35223 70.1761 0.889099C69.5028 0.425972 68.7269 0.133168 67.9152 0.0358926C67.1035 -0.0613833 66.2803 0.039783 65.5164 0.330683L1.39159 24.751C1.38244 24.7544 1.37406 24.759 1.36498 24.7626C1.32268 24.7794 1.28144 24.7981 1.24048 24.8174C1.21479 24.8295 1.18903 24.8412 1.16404 24.8541C1.12963 24.8721 1.09627 24.8917 1.06298 24.9114C1.0332 24.9289 1.00336 24.9461 0.974717 24.9649C0.948817 24.9819 0.92404 25.0004 0.898914 25.0184C0.865836 25.0423 0.832757 25.0659 0.801296 25.0914C0.781309 25.1076 0.762516 25.125 0.743161 25.1418C0.709659 25.171 0.676298 25.2001 0.644838 25.231C0.626889 25.2487 0.61021 25.2676 0.592896 25.2859C0.563053 25.3175 0.533143 25.3489 0.505341 25.3821C0.486127 25.405 0.468529 25.4292 0.450232 25.4529C0.427077 25.483 0.4035 25.5128 0.382034 25.5441C0.360918 25.5745 0.341917 25.6064 0.322489 25.638C0.306302 25.6642 0.28948 25.6899 0.274489 25.7168C0.253796 25.7538 0.235427 25.7921 0.216917 25.8305C0.205515 25.854 0.193409 25.8771 0.182852 25.901C0.165465 25.9406 0.150476 25.9813 0.135344 26.0221C0.126194 26.047 0.116272 26.0715 0.108038 26.0967C0.095642 26.1344 0.0855129 26.1731 0.0751721 26.2118C0.0670079 26.2423 0.0584226 26.2727 0.0515326 26.3036C0.0442823 26.3366 0.0388675 26.3701 0.0331652 26.4036C0.0265347 26.4421 0.0200031 26.4806 0.0154972 26.5195C0.0122598 26.5472 0.0105028 26.5752 0.00832045 26.6031C0.00480051 26.6485 0.00205506 26.6939 0.00142084 26.7397C0.00133724 26.7493 6.24587e-09 26.7587 6.24587e-09 26.7684V143.937C-2.15757e-05 144.22 0.0558877 144.501 0.164537 144.763C0.273187 145.025 0.432448 145.263 0.633225 145.463C0.834001 145.664 1.07236 145.823 1.33469 145.931C1.59702 146.04 1.87819 146.096 2.16213 146.096H88.9355C90.273 146.094 91.5554 145.563 92.5012 144.618C93.4469 143.674 93.9789 142.393 93.9805 141.058V29.6472C93.9789 28.3115 93.4469 27.031 92.5012 26.0865C91.5554 25.1421 90.273 24.6108 88.9355 24.6093ZM67.0575 4.36555C67.1666 4.32396 67.2842 4.30948 67.4001 4.32335C67.5161 4.33721 67.6269 4.37902 67.7231 4.44516C67.8193 4.5113 67.8979 4.5998 67.9522 4.70303C68.0066 4.80626 68.0349 4.92112 68.0349 5.03774V24.6093H13.8998L67.0575 4.36555ZM89.6562 141.058C89.656 141.249 89.58 141.432 89.4449 141.566C89.3098 141.701 89.1266 141.777 88.9355 141.777H4.32425V28.9275H88.9355C89.1266 28.9277 89.3098 29.0036 89.4449 29.1385C89.58 29.2734 89.656 29.4564 89.6562 29.6472V141.058ZM78.8456 103.18H40.2156C39.6421 103.18 39.0922 103.408 38.6867 103.813C38.2812 104.217 38.0534 104.767 38.0534 105.339C38.0534 105.912 38.2812 106.461 38.6867 106.866C39.0922 107.271 39.6421 107.498 40.2156 107.498H78.8456C79.419 107.498 79.969 107.271 80.3744 106.866C80.7799 106.461 81.0077 105.912 81.0077 105.339C81.0077 104.767 80.7799 104.217 80.3744 103.813C79.969 103.408 79.419 103.18 78.8456 103.18ZM27.2428 91.0891H15.1349C14.851 91.089 14.5698 91.1449 14.3075 91.2533C14.0451 91.3619 13.8068 91.5209 13.606 91.7214C13.4052 91.9219 13.246 92.1599 13.1373 92.4219C13.0287 92.6838 12.9727 92.9646 12.9728 93.2482V105.339C12.9727 105.623 13.0287 105.904 13.1373 106.166C13.246 106.427 13.4052 106.666 13.606 106.866C13.8068 107.067 14.0451 107.226 14.3075 107.334C14.5698 107.443 14.851 107.498 15.1349 107.498H27.2428C27.5267 107.498 27.8079 107.443 28.0702 107.334C28.3326 107.226 28.5709 107.067 28.7717 106.866C28.9725 106.666 29.1317 106.427 29.2404 106.166C29.349 105.904 29.405 105.623 29.4049 105.339V93.2482C29.405 92.9646 29.349 92.6838 29.2404 92.4219C29.1317 92.1599 28.9725 91.9219 28.7717 91.7214C28.5709 91.5209 28.3326 91.3619 28.0702 91.2533C27.8079 91.1449 27.5267 91.089 27.2428 91.0891ZM25.0807 103.18H17.297V95.4073H25.0807V103.18ZM78.8456 116.732H40.2156C39.6421 116.732 39.0922 116.959 38.6867 117.364C38.2812 117.769 38.0534 118.318 38.0534 118.891C38.0534 119.463 38.2812 120.013 38.6867 120.418C39.0922 120.822 39.6421 121.05 40.2156 121.05H78.8456C79.419 121.05 79.969 120.822 80.3744 120.418C80.7799 120.013 81.0077 119.463 81.0077 118.891C81.0077 118.318 80.7799 117.769 80.3744 117.364C79.969 116.959 79.419 116.732 78.8456 116.732Z" fill="white"/>
</svg>
