<svg width="800" height="800" viewBox="0 0 800 800" fill="none" xmlns="http://www.w3.org/2000/svg">
<path d="M64 16C55.152 16 48 23.168 48 32V160C48 168.848 55.152 176 64 176H240C248.848 176 256 168.848 256 160V32C256 23.168 248.848 16 240 16H64ZM594.625 152C564.636 152 539.315 161.607 525.719 176H432C429.88 175.97 427.775 176.362 425.807 177.152C423.84 177.943 422.049 179.117 420.539 180.605C419.029 182.094 417.83 183.868 417.012 185.824C416.194 187.78 415.772 189.88 415.772 192C415.772 194.12 416.194 196.22 417.012 198.176C417.83 200.132 419.029 201.906 420.539 203.395C422.049 204.883 423.84 206.057 425.807 206.848C427.775 207.638 429.88 208.03 432 208H516.156C522.321 230.974 554.518 248 594.625 248C612.321 248 623.955 244.593 631.219 237.312C640.259 228.224 640.236 215.415 640.188 203.031L640.156 199.969L640.188 196.938C640.236 184.569 640.275 171.776 631.219 162.688C623.955 155.391 612.367 152 594.719 152H594.625ZM32 208C23.152 208 16 215.168 16 224V352C16 360.832 23.152 368 32 368H176.25C178.266 341.552 193.632 307.48 224 304.344V224C224 215.168 216.848 208 208 208H32ZM531.969 266.969C545.777 371.945 525.17 473.67 477.25 531.094C452.354 560.902 422.425 576 388.281 576C372.489 576 363.135 565.611 358.062 556.875C344.366 533.275 342.012 486.984 372.844 425C352.204 429.624 326.313 432 294.969 432C276.114 432 232.772 431.868 203.969 416.562C201.031 415.003 198.28 413.268 195.688 411.375C190.647 407.695 186.241 403.43 182.969 398.312C181.815 398.847 180.789 399.453 179.656 400H16C7.152 400 0 407.168 0 416C0 424.848 7.152 432 16 432H130.25C82.0862 472.721 65.552 520.271 64.5938 523.625C63.3937 527.881 63.9932 532.458 66.2812 536.25C68.5693 540.042 72.305 542.728 76.625 543.656L317.906 608H496.938C496.377 603.04 496 597.792 496 592C496 506.768 578.24 432 672 432C674.896 432 677.638 432.153 680.406 432.281C674.678 368.169 643.757 314.415 616.125 278.062C609.501 279.23 602.449 280 594.625 280C571.041 280 549.617 275.241 531.969 266.969ZM228.5 336C226.945 336 225.455 336.476 224 337.219L223.938 337.281C222.113 338.228 220.415 339.758 218.812 341.625C218.593 341.879 218.371 342.106 218.156 342.375C216.575 344.363 215.116 346.643 213.844 349.25C212.243 352.516 211.011 356.162 210.031 359.906C209.722 361.087 209.582 362.184 209.344 363.375C209.038 364.896 208.588 366.398 208.406 367.906C208.541 367.903 208.648 367.819 208.781 367.812C208.535 369.848 208 371.945 208 373.875C208 390.163 237.737 400 294.969 400C352.233 400 400 390.179 400 373.875C400 357.603 390.829 336 379.469 336H228.5ZM672 464C599.6 464 528 521.184 528 592C528 635.84 547.04 640 560 640C586.544 640 576 585.568 640 560C658.8 552.496 677.286 550.156 694.406 550.156C723.35 550.156 748.386 556.875 764.594 556.875C776.834 556.875 784.031 553.035 784.031 539.531C784.015 527.995 763.264 464 672 464ZM690.875 582.281C676.523 582.633 663.667 585.015 651.875 589.719C648.867 590.919 646.169 592.203 643.625 593.531C641.401 597.915 640 602.768 640 608C640 625.648 654.352 640 672 640C689.648 640 704 625.648 704 608C704 597.424 698.795 588.105 690.875 582.281ZM99.0938 582.75C97.1897 591.006 96 599.44 96 608C96 669.744 146.256 720 208 720C258.752 720 301.663 686.024 315.375 639.656C313.455 639.512 311.528 639.433 309.656 638.938L268.5 627.938C260.068 653.426 236.288 672 208 672C172.704 672 144 643.296 144 608C144 603.568 144.557 599.27 145.438 595.094L99.0938 582.75ZM731.719 585.5C734.375 592.54 736 600.064 736 608C736 643.296 707.296 672 672 672C644.192 672 620.722 654.082 611.906 629.25C611.522 630.018 611.149 630.794 610.781 631.562C605.069 643.323 596.224 661.077 578 668.469C598.144 699.701 633.04 720 672 720C733.744 720 784 669.744 784 608C784 600.72 783.048 593.541 781.656 586.469C776.552 587.877 771.043 588.875 764.562 588.875C755.33 588.875 745.342 587.442 734.75 585.906C733.79 585.762 732.695 585.644 731.719 585.5ZM176.469 603.406C176.245 604.926 176 606.432 176 608C176 625.648 190.352 640 208 640C221.488 640 232.999 631.559 237.688 619.719L176.469 603.406Z" fill="#000"/>
<path d="M392 99.8906C345.601 99.9211 299.926 110.822 259.02 131.629C218.114 152.435 183.239 182.505 157.483 219.175C131.727 255.845 115.886 297.983 111.362 341.859C106.838 385.734 113.771 429.993 131.546 470.715C149.322 511.437 177.392 547.366 213.27 575.32C249.149 603.274 291.729 622.391 337.239 630.977C382.749 639.563 429.786 637.353 474.183 624.544C518.58 611.735 558.968 588.721 591.769 557.541C592.417 556.98 592.99 556.345 593.474 555.651C645.48 505.72 674.549 438.248 674.32 368.001C674.214 296.901 644.432 228.744 591.505 178.481C538.579 128.218 466.83 99.9549 392 99.8906ZM392 609.111C324.708 609.039 260.192 583.618 212.597 538.42C165.001 493.223 138.21 431.937 138.097 368.001C137.925 308.66 161.023 251.386 202.887 207.351L561.221 547.821C514.675 587.342 454.423 609.164 392 609.111ZM581.539 528.651L222.779 188.181C271.125 147.062 334.206 125.093 399.068 126.785C463.929 128.477 525.647 153.701 571.546 197.278C617.445 240.854 644.042 299.475 645.874 361.102C647.706 422.728 624.634 482.682 581.397 528.651H581.539Z" fill="#FF0000"/>
</svg>
