<svg width="800" height="800" viewBox="0 0 800 800" fill="none" xmlns="http://www.w3.org/2000/svg">
<g clip-path="url(#clip0_506_20)">
<path d="M260.078 0.00745985C256.96 0.00064767 253.883 0.722998 251.094 2.11683L11.0938 122.117C4.30295 125.495 0.00687218 132.423 0 140.007V780.007C0.0149038 794.848 15.6175 804.505 28.9062 797.898L260.625 682.039L532.109 798.367C537.506 800.684 543.648 800.513 548.906 797.898L788.906 677.898C795.697 674.52 799.993 667.592 800 660.007V20.0075C799.985 5.16709 784.383 -4.48963 771.094 2.11683L686.094 44.6168L702.109 61.4137L713.281 75.7106L760 52.3512V647.664L539.375 757.976L267.891 641.648C262.494 639.331 256.352 639.502 251.094 642.117L40 747.664V152.351L260.625 42.0387L329.922 71.7262L337.812 61.4918L354.609 43.9137L358.594 40.4762L267.891 1.64808C265.423 0.581818 262.766 0.0238317 260.078 0.00745985ZM509.844 17.9762L489.688 20.0856L469.844 24.2262L450.469 30.32L431.875 38.2106L414.219 48.0543L397.578 59.6168L382.188 72.8981L368.203 87.5856L355.859 103.523L345.078 120.711L336.172 138.914L329.141 157.976L324.062 177.507L321.016 197.586L320 217.82L321.016 250.554L324.062 283.211L329.219 315.554L336.406 347.507L345.547 378.992L356.719 409.851L369.766 439.851L384.688 468.992L401.406 497.195L419.922 524.304L440.078 550.164L461.797 574.695H461.875L471.484 583.367L482.5 590.32L494.375 595.476L507.031 598.679L520 600.007L532.969 598.679L545.547 595.476L557.5 590.32L568.516 583.367L578.203 574.695L599.922 550.164L620 524.304L638.594 497.195L655.234 468.992L670.156 439.851L683.203 409.851L694.375 378.992L703.594 347.507L710.703 315.554L715.859 283.211L718.906 250.554L720 217.82L718.906 197.586L715.859 177.507L710.859 157.976L703.75 138.914L694.844 120.711L684.219 103.523L671.797 87.5856L657.734 72.8981L642.344 59.6168L625.781 48.0543L608.125 38.2106L589.453 30.32L570.078 24.2262L550.234 20.0856L530.078 17.9762H509.844ZM520 57.82L537.891 58.8356L555.625 61.8043L572.891 66.8043L589.375 73.6793L605.156 82.3512L619.766 92.7418L633.125 104.695L645.078 118.054L655.469 132.664L664.141 148.367L671.016 165.007L676.016 182.195L679.062 199.851L680 217.742L679.062 248.054L676.172 278.132L671.406 307.976L664.844 337.586L656.328 366.57L646.094 395.007L633.984 422.82L620.234 449.695L604.766 475.711L587.812 500.711L569.141 524.539L549.141 547.195L542.891 552.586L535.859 556.492L528.125 558.836L520 559.929L511.875 558.836L504.141 556.492L497.109 552.586L490.859 547.195L470.859 524.539L452.188 500.711L435.234 475.711L419.766 449.695L406.016 422.82L393.906 395.007L383.672 366.57L375.156 337.586L368.594 307.976L363.828 278.132L360.938 248.054L360 217.742L361.016 199.851L363.984 182.195L368.906 165.007L375.781 148.367L384.531 132.664L394.922 118.054L406.875 104.695L420.234 92.7418L434.844 82.3512L450.547 73.6793L467.188 66.8043L484.375 61.8043L502.031 58.8356L520 57.82ZM259.688 79.695C248.642 79.8673 239.827 88.9617 240 100.007V580.007C239.618 607.054 280.383 607.054 280 580.007V100.007C280.177 88.7168 270.978 79.5183 259.688 79.695ZM516.719 137.742L503.984 139.304L491.641 142.976L480 148.367L469.375 155.711L460.156 164.617L452.422 174.929L446.406 186.414L442.266 198.601L440.234 211.257V224.226L442.266 236.882L446.406 249.07L452.422 260.476L460.156 270.789L469.375 279.617L480 286.961L491.641 292.507L503.984 296.101L516.719 297.664L529.609 297.429L542.266 294.773L554.297 290.164L565.469 283.757L575.469 275.632L583.984 266.023L590.859 255.086L595.859 243.289L598.984 230.789L600 217.898V217.82L598.984 205.007L595.859 192.507L590.859 180.632L583.984 169.773L575.469 160.164L565.469 151.882L554.297 145.476L542.266 140.945L529.609 138.289L516.719 137.742ZM520 177.742L528.828 178.836L537.344 181.804L544.922 186.57L551.328 192.898L556.094 200.398L558.984 208.914L560 217.82L558.984 226.648L556.094 235.164L551.328 242.742L544.922 249.148L537.344 253.914L528.828 256.882L520 257.898L511.094 256.882L502.578 253.914L495.078 249.148L488.75 242.742L483.984 235.164L481.016 226.648L480 217.82L481.016 208.914L483.984 200.398L488.75 192.898L495.078 186.57L502.578 181.804L511.094 178.836L520 177.742ZM560 632.82L558.516 633.445L540 638.132L520 640.242V700.007C519.616 727.054 560.383 727.054 560 700.007V632.82Z" fill="white"/>
</g>
<defs>
<clipPath id="clip0_506_20">
<rect width="800" height="800" fill="white"/>
</clipPath>
</defs>
</svg>
