<svg width="800" height="800" viewBox="0 0 800 800" fill="none" xmlns="http://www.w3.org/2000/svg">
<g clip-path="url(#clip0_502_6)">
<path d="M798.971 719.978L716.043 429.35C712.751 417.819 702.217 409.87 690.23 409.87H499.525C537.785 358.234 575.027 290.182 575.027 220.903C575.027 124.358 496.514 45.8125 400.004 45.8125C303.492 45.8125 224.976 124.358 224.976 220.903C224.976 290.185 262.218 358.234 300.48 409.87H109.773C97.7862 409.87 87.2515 417.819 83.9599 429.35L1.03166 719.978C-1.27677 728.075 0.342093 736.791 5.41686 743.515C10.4889 750.238 18.4216 754.189 26.8445 754.189H773.158C781.581 754.189 789.514 750.238 794.586 743.515C799.661 736.791 801.279 728.075 798.971 719.978ZM400.004 99.4989C466.908 99.4989 521.341 153.961 521.341 220.9C521.341 310.727 437.505 405.313 400.004 443.128C362.501 405.313 278.662 310.727 278.662 220.9C278.662 153.961 333.097 99.4989 400.004 99.4989ZM345.098 463.562C365.227 485.321 380.325 498.768 382.261 500.478C387.333 504.939 393.666 507.174 400.004 507.174C406.342 507.174 412.678 504.939 417.747 500.478C419.684 498.768 434.781 485.321 454.908 463.562H669.974L677.435 489.709L573.599 576.241L121.342 494.013L130.034 463.562H345.098ZM205.38 700.5V563.861L519.843 621.039L424.486 700.5H205.38ZM106.538 545.892L151.691 554.1V700.503H62.4218L106.538 545.892ZM508.349 700.5L693.543 546.17L737.581 700.5H508.349Z" fill="white"/>
<path d="M472.22 220.904C472.22 180.874 439.824 148.309 400.001 148.309C360.179 148.309 327.778 180.874 327.778 220.904C327.778 260.929 360.176 293.5 400.001 293.5C439.824 293.5 472.22 260.929 472.22 220.904ZM381.469 220.904C381.469 210.477 389.785 201.995 400.004 201.995C410.221 201.995 418.533 210.474 418.533 220.904C418.533 231.334 410.221 239.813 400.004 239.813C389.785 239.811 381.469 231.331 381.469 220.904Z" fill="white"/>
</g>
<defs>
<clipPath id="clip0_502_6">
<rect width="800" height="800" fill="white"/>
</clipPath>
</defs>
</svg>
