<svg width="800" height="800" viewBox="0 0 800 800" fill="none" xmlns="http://www.w3.org/2000/svg">
<g clip-path="url(#clip0_44_12)">
<path d="M106.667 719.997H266.667V586.665H106.667V719.997ZM146.667 613.33H226.667C234.04 613.33 240 619.304 240 626.663C240 634.022 234.04 639.996 226.667 639.996H146.667C139.293 639.996 133.334 634.022 133.334 626.663C133.334 619.304 139.293 613.33 146.667 613.33ZM146.667 666.664H200C207.373 666.664 213.332 672.638 213.332 679.997C213.332 687.357 207.373 693.33 200 693.33H146.667C139.293 693.33 133.334 687.357 133.334 679.997C133.334 672.638 139.293 666.664 146.667 666.664Z" fill="white"/>
<path d="M319.999 266.665C322.946 266.665 325.893 267.639 328.332 269.585L373.332 305.585V160H266.665V305.585L311.665 269.585C314.106 267.639 317.052 266.665 319.999 266.665Z" fill="white"/>
<path d="M541.199 353.918C534.799 357.906 527.493 359.998 519.999 359.998C511.493 359.998 503.372 357.357 496.479 352.357C483.185 342.69 477.199 326.157 481.212 310.251L502.371 225.598L438.385 161.612C437.879 161.106 437.465 160.533 436.985 159.998H399.999V308.278C399.999 318.118 394.493 326.892 385.613 331.145C376.72 335.412 366.44 334.224 358.773 328.092L319.999 297.078L281.226 328.092C276.599 331.785 271.04 333.692 265.414 333.692C261.693 333.692 257.934 332.851 254.387 331.145C245.507 326.892 240.001 318.118 240.001 308.278V159.998H65.9858C29.5999 159.998 0 189.904 0 226.665V733.331C0 770.091 29.5999 799.998 65.9858 799.998H573.332C610.091 799.998 639.999 770.092 639.999 733.331V312.012L625.185 301.426L541.199 353.918ZM293.332 733.33C293.332 740.689 287.373 746.663 279.999 746.663H93.3326C85.9592 746.663 79.9998 740.689 79.9998 733.33V573.33C79.9998 565.971 85.9592 559.997 93.3326 559.997H279.999C287.373 559.997 293.332 565.971 293.332 573.33V733.33Z" fill="white"/>
<path d="M799.269 128.989C797.602 124.162 793.348 120.709 788.283 120.095L686.363 107.642L638.696 7.6034C636.496 2.95028 631.802 0.00341797 626.669 0.00341797C621.522 0.00341797 616.828 2.95028 614.628 7.6034L566.961 107.644L465.055 120.097C459.988 120.711 455.723 124.164 454.055 128.99C452.388 133.804 453.629 139.15 457.241 142.764L531.894 217.417L507.068 316.763C505.735 322.043 507.762 327.59 512.161 330.79C514.494 332.484 517.241 333.337 520.002 333.337C522.443 333.337 524.896 332.657 527.069 331.31L626.175 269.364L712.255 330.857C716.549 333.924 722.281 334.163 726.814 331.457C731.361 328.737 733.894 323.604 733.228 318.351L720.695 218.151L796.095 142.765C799.695 139.148 800.936 133.803 799.269 128.989Z" fill="white"/>
</g>
<defs>
<clipPath id="clip0_44_12">
<rect width="800" height="800" fill="white"/>
</clipPath>
</defs>
</svg>
