<svg width="40" height="40" viewBox="0 0 40 40" fill="none" xmlns="http://www.w3.org/2000/svg">
<mask id="mask0_230_9727" style="mask-type:alpha" maskUnits="userSpaceOnUse" x="0" y="0" width="40" height="40">
<rect width="40" height="40" fill="#D9D9D9"/>
</mask>
<g mask="url(#mask0_230_9727)">
<path d="M23.3333 30C26.111 30 28.4721 29.0278 30.4166 27.0834C32.361 25.1389 33.3333 22.7778 33.3333 20C33.3333 17.1945 32.3124 14.8264 30.2708 12.8959C28.2291 10.9653 25.7777 10 22.9166 10C21.5833 10 20.2916 10.1528 19.0416 10.4584C17.7916 10.7639 16.5833 11.2222 15.4166 11.8334L19.5833 13.5C20.7221 13.9722 21.6319 14.7014 22.3124 15.6875C22.993 16.6736 23.3333 17.7778 23.3333 19C23.3333 20.6667 22.7569 22.0834 21.6041 23.25C20.4513 24.4167 19.0555 25 17.4166 25H6.74992C6.69436 25.6667 6.66659 26.4236 6.66659 27.2709V30H23.3333ZM7.33325 21.6667H17.3333C18.0833 21.6667 18.7152 21.4097 19.2291 20.8959C19.743 20.382 19.9999 19.75 19.9999 19C19.9999 18.4722 19.8541 17.9931 19.5624 17.5625C19.2708 17.132 18.861 16.8056 18.3333 16.5834L12.1666 14.0834C10.9999 15.1111 10.0069 16.2778 9.18742 17.5834C8.36797 18.8889 7.74992 20.25 7.33325 21.6667ZM23.3333 33.3334H6.66659C5.74992 33.3334 4.9652 33.007 4.31242 32.3542C3.65964 31.7014 3.33325 30.9167 3.33325 30V26.25C3.33325 23.5278 3.84714 20.9792 4.87492 18.6042C5.9027 16.2292 7.29853 14.1597 9.06242 12.3959C10.8263 10.632 12.9027 9.23613 15.2916 8.20835C17.6805 7.18058 20.2221 6.66669 22.9166 6.66669C24.8055 6.66669 26.5833 7.01391 28.2499 7.70835C29.9166 8.4028 31.3749 9.35419 32.6249 10.5625C33.8749 11.7709 34.861 13.1806 35.5833 14.7917C36.3055 16.4028 36.6666 18.1389 36.6666 20C36.6666 21.8334 36.3194 23.5625 35.6249 25.1875C34.9305 26.8125 33.9791 28.2292 32.7708 29.4375C31.5624 30.6459 30.1458 31.5972 28.5208 32.2917C26.8958 32.9861 25.1666 33.3334 23.3333 33.3334Z" fill="#1C1B1F"/>
</g>
</svg>
