<svg width="539" height="1032" viewBox="0 0 539 1032" fill="none" xmlns="http://www.w3.org/2000/svg">
<path d="M538.996 315.434C539.091 274.121 532.214 233.191 518.758 194.98C505.302 156.77 485.53 122.028 460.572 92.737C410.168 33.5819 341.697 0.223839 270.224 0.00112238C198.75 -0.221594 130.128 32.7093 79.4532 91.5494C28.7788 150.389 0.202941 230.319 0.0121532 313.754C-0.6208 410.684 23.4832 505.638 69.2521 586.516C115.021 667.394 180.382 730.533 257.005 767.886C260.922 769.956 265.175 771.018 269.474 771C273.805 771.009 278.087 769.935 282.033 767.851C358.423 730.611 423.623 667.736 469.369 587.195C515.115 506.653 539.348 412.07 538.996 315.434ZM269.474 697.521C206.288 665.047 152.706 611.547 115.43 543.712C78.1542 475.876 58.8386 396.716 59.8993 316.133C59.8993 284.006 65.3201 252.193 75.8522 222.511C86.3843 192.828 101.822 165.859 121.282 143.141C140.743 120.423 163.847 102.403 189.273 90.1079C214.7 77.8131 241.952 71.4851 269.474 71.4851C296.996 71.4851 324.248 77.8131 349.675 90.1079C375.102 102.403 398.205 120.423 417.666 143.141C437.127 165.859 452.564 192.828 463.096 222.511C473.628 252.193 479.049 284.006 479.049 316.133C479.049 316.868 479.049 317.708 479.049 318.408C479.776 398.618 460.3 477.311 423.042 544.711C385.783 612.111 332.383 665.248 269.474 697.521ZM269.474 176.174C245.761 176.174 222.581 184.383 202.865 199.762C183.148 215.141 167.781 236.999 158.706 262.573C149.632 288.147 147.258 316.289 151.884 343.438C156.51 370.587 167.929 395.526 184.696 415.099C201.464 434.673 222.827 448.003 246.084 453.403C269.341 458.803 293.448 456.032 315.356 445.438C337.263 434.845 355.988 416.906 369.163 393.89C382.337 370.874 389.368 343.815 389.368 316.133C389.368 279.014 376.737 243.415 354.252 217.167C331.768 190.92 301.272 176.174 269.474 176.174ZM269.474 386.113C257.618 386.113 246.028 382.009 236.169 374.319C226.311 366.63 218.628 355.7 214.09 342.913C209.553 330.126 208.366 316.056 210.679 302.481C212.992 288.906 218.701 276.437 227.085 266.65C235.469 256.864 246.151 250.199 257.779 247.498C269.408 244.798 281.461 246.184 292.415 251.481C303.369 256.777 312.731 265.747 319.318 277.255C325.905 288.763 329.421 302.293 329.421 316.133C329.421 334.693 323.105 352.493 311.863 365.616C300.621 378.74 285.373 386.113 269.474 386.113Z" fill="#000"/>
<path d="M188.708 887.001C188.728 870.368 193.432 854.11 202.232 840.26C211.031 826.411 223.536 815.585 238.182 809.138C252.827 802.69 268.964 800.906 284.573 804.009C300.182 807.112 314.57 814.965 325.939 826.585H292.583C289.522 826.585 286.587 827.858 284.422 830.124C282.258 832.39 281.042 835.463 281.042 838.668C281.042 841.873 282.258 844.946 284.422 847.212C286.587 849.478 289.522 850.751 292.583 850.751H351.215C354.113 850.508 356.817 849.128 358.786 846.888C360.754 844.648 361.843 841.712 361.833 838.668V778.251C361.833 775.047 360.617 771.973 358.453 769.707C356.288 767.441 353.353 766.168 350.292 766.168C347.231 766.168 344.295 767.441 342.13 769.707C339.966 771.973 338.75 775.047 338.75 778.251V806.285C323.825 792.308 305.359 783.146 285.575 779.902C265.792 776.657 245.534 779.469 227.241 787.997C208.949 796.526 193.4 810.409 182.469 827.973C171.537 845.538 165.688 866.037 165.625 887.001C165.625 890.206 166.841 893.279 169.005 895.545C171.17 897.812 174.106 899.085 177.167 899.085C180.228 899.085 183.163 897.812 185.328 895.545C187.492 893.279 188.708 890.206 188.708 887.001Z" fill="#000"/>
<path d="M361.833 874.918C358.772 874.918 355.837 876.191 353.672 878.457C351.508 880.723 350.292 883.797 350.292 887.001C350.272 903.635 345.568 919.893 336.768 933.742C327.969 947.592 315.464 958.417 300.818 964.865C286.173 971.313 270.036 973.097 254.427 969.994C238.818 966.89 224.43 959.038 213.061 947.418H246.417C249.478 947.418 252.413 946.145 254.578 943.879C256.742 941.613 257.958 938.539 257.958 935.335C257.958 932.13 256.742 929.056 254.578 926.79C252.413 924.524 249.478 923.251 246.417 923.251H187.785C184.887 923.495 182.183 924.875 180.214 927.115C178.246 929.355 177.157 932.291 177.167 935.335V995.751C177.167 998.956 178.383 1002.03 180.547 1004.3C182.712 1006.56 185.647 1007.83 188.708 1007.83C191.769 1007.83 194.705 1006.56 196.87 1004.3C199.034 1002.03 200.25 998.956 200.25 995.751V967.718C215.175 981.694 233.641 990.856 253.425 994.101C273.208 997.345 293.466 994.534 311.759 986.005C330.051 977.476 345.6 963.594 356.531 946.029C367.463 928.464 373.312 907.966 373.375 887.001C373.375 883.797 372.159 880.723 369.995 878.457C367.83 876.191 364.894 874.918 361.833 874.918Z" fill="#000"/>
</svg>
