<svg width="800" height="800" viewBox="0 0 800 800" fill="none" xmlns="http://www.w3.org/2000/svg">
<g clip-path="url(#clip0_44_28)">
<path d="M626.665 0C531.092 0 453.332 77.747 453.332 173.333C453.332 268.907 531.092 346.666 626.665 346.666C722.239 346.666 799.998 268.907 799.998 173.333C799.998 77.747 722.239 0 626.665 0ZM717.919 113.827L624.586 260.494C622.412 263.908 618.812 266.147 614.786 266.588C614.306 266.641 613.812 266.668 613.332 266.668C609.826 266.668 606.426 265.268 603.906 262.761L537.238 196.094C532.038 190.88 532.038 182.441 537.238 177.241C542.453 172.027 550.892 172.027 556.092 177.241L611.012 232.161L695.426 99.508C699.373 93.2939 707.612 91.4674 713.826 95.4142C720.039 99.3736 721.879 107.614 717.919 113.827Z" fill="white"/>
<path d="M106.669 720H266.669V586.667H106.669V720ZM146.669 613.332H226.669C234.029 613.332 240.002 619.306 240.002 626.665C240.002 634.025 234.029 639.998 226.669 639.998H146.669C139.31 639.998 133.336 634.025 133.336 626.665C133.336 619.306 139.308 613.332 146.669 613.332ZM146.669 666.667H200.002C207.361 666.667 213.335 672.64 213.335 680C213.335 687.359 207.361 693.333 200.002 693.333H146.669C139.31 693.333 133.336 687.359 133.336 680C133.336 672.64 139.308 666.667 146.669 666.667Z" fill="white"/>
<path d="M320.002 266.666C322.949 266.666 325.896 267.64 328.335 269.586L373.335 305.586V160H266.668V305.586L311.668 269.586C314.108 267.64 317.055 266.666 320.002 266.666Z" fill="white"/>
<path d="M426.669 173.332C426.669 168.825 427.055 164.425 427.349 159.999H400.002V308.279C400.002 318.119 394.482 326.893 385.616 331.146C376.749 335.399 366.457 334.252 358.776 328.093L320.002 297.079L281.229 328.093C276.614 331.787 271.055 333.679 265.429 333.679C261.682 333.693 257.922 332.852 254.388 331.146C245.521 326.893 240.002 318.119 240.002 308.279V159.999H66.0016C29.6015 159.999 0.00146484 189.905 0.00146484 226.666V733.334C0.00146484 770.094 29.6015 800.002 66.0016 800.002H573.335C610.095 800.002 640.003 770.095 640.003 733.334V372.652C635.576 372.946 631.176 373.332 626.67 373.332C516.388 373.332 426.669 283.613 426.669 173.332ZM293.335 733.334C293.335 740.694 287.361 746.667 280.002 746.667H93.3345C85.9751 746.667 80.0016 740.694 80.0016 733.334V573.334C80.0016 565.975 85.9751 560.001 93.3345 560.001H280.002C287.361 560.001 293.335 565.975 293.335 573.334V733.334Z" fill="white"/>
</g>
<defs>
<clipPath id="clip0_44_28">
<rect width="800" height="800" fill="white"/>
</clipPath>
</defs>
</svg>
