<svg width="35" height="35" viewBox="0 0 35 35" fill="none" xmlns="http://www.w3.org/2000/svg">
<path d="M17.5 1.45898C14.3273 1.45898 11.2258 2.39981 8.58778 4.16249C5.94974 5.92517 3.89364 8.43054 2.67948 11.3618C1.46532 14.293 1.14765 17.5184 1.76662 20.6302C2.38559 23.742 3.91341 26.6004 6.15688 28.8438C8.40034 31.0873 11.2587 32.6151 14.3705 33.2341C17.4823 33.853 20.7077 33.5354 23.6389 32.3212C26.5702 31.1071 29.0755 29.051 30.8382 26.4129C32.6009 23.7749 33.5417 20.6734 33.5417 17.5007C33.5367 13.2477 31.845 9.17033 28.8377 6.16302C25.8304 3.15571 21.753 1.464 17.5 1.45898ZM17.5 30.6256C14.9042 30.6256 12.3666 29.8559 10.2082 28.4137C8.04979 26.9715 6.36753 24.9216 5.37413 22.5234C4.38073 20.1251 4.12081 17.4861 4.62724 14.9401C5.13367 12.3941 6.38371 10.0554 8.21927 8.21987C10.0548 6.38431 12.3935 5.13427 14.9395 4.62784C17.4855 4.12141 20.1245 4.38133 22.5228 5.37473C24.921 6.36813 26.9709 8.0504 28.4131 10.2088C29.8553 12.3672 30.625 14.9048 30.625 17.5007C30.6212 20.9804 29.2371 24.3166 26.7766 26.7772C24.316 29.2377 20.9798 30.6218 17.5 30.6256ZM26.25 17.5007C26.25 17.8874 26.0964 18.2584 25.8229 18.5318C25.5494 18.8053 25.1785 18.959 24.7917 18.959H17.5C17.1133 18.959 16.7423 18.8053 16.4688 18.5318C16.1954 18.2584 16.0417 17.8874 16.0417 17.5007V8.75065C16.0417 8.36388 16.1954 7.99294 16.4688 7.71945C16.7423 7.44596 17.1133 7.29232 17.5 7.29232C17.8868 7.29232 18.2578 7.44596 18.5312 7.71945C18.8047 7.99294 18.9584 8.36388 18.9584 8.75065V16.0423H24.7917C25.1785 16.0423 25.5494 16.196 25.8229 16.4695C26.0964 16.7429 26.25 17.1139 26.25 17.5007Z" fill="white"/>
</svg>
