<svg width="250" height="250" viewBox="0 0 250 250" fill="none" xmlns="http://www.w3.org/2000/svg">
<path d="M168.503 196.637C168.503 193.11 171.364 190.248 174.892 190.248H227.385C252.412 138.537 256.54 98.4653 240.397 70.4908C217.699 31.1576 150.125 33.0539 150.125 33.0539C89.1792 33.0539 50.6907 75.6578 50.6907 75.6578C31.049 96.4904 11.13 135.955 2.35953 162.509C2.35953 162.509 0.861904 167.108 0.507942 168.665C0.240234 169.84 0 171.022 0 172.233V204.183C0 207.599 1.33023 210.81 3.74727 213.223C6.15919 215.632 9.36657 216.961 12.7784 216.961H12.7918L205.883 216.931C210.526 216.926 214.804 214.208 217.051 210.147C218.376 207.751 219.656 205.38 220.902 203.027H174.892C171.364 203.027 168.503 200.167 168.503 196.637ZM125.727 122.381C117.562 127.24 98.6187 132.22 81.9045 136.616C74.1825 138.647 66.8886 140.565 60.5371 142.465C50.1585 145.573 38.8675 148.506 26.8992 151.204C38.541 122.916 55.457 96.8048 71.0595 83.2283C71.0595 83.2283 135.27 83.2283 141.038 83.2283C146.807 83.2283 150.594 85.6441 150.622 90.3478C150.622 101.775 142.246 112.554 125.727 122.381Z" fill="white"/>
<path d="M135.288 88.6604C131.765 88.6604 128.899 91.5266 128.899 95.0497C128.899 98.5733 131.765 101.439 135.288 101.439C138.813 101.439 141.677 98.5733 141.677 95.0497C141.677 91.526 138.812 88.6604 135.288 88.6604Z" fill="white"/>
</svg>
