<?xml version="1.0" encoding="UTF-8"?>
<svg id="Layer_2" data-name="Layer 2" xmlns="http://www.w3.org/2000/svg" viewBox="0 0 219.67 243">
  <defs>
    <style>
      .cls-1 {
        fill: #fff;
      }
    </style>
  </defs>
  <g id="Layer_1-2" data-name="Layer 1">
    <g>
      <path class="cls-1" d="m118.75,64.71l29.7,21.79c2.15,1.58,4.96,1.81,7.34.6,2.38-1.21,3.86-3.61,3.86-6.28v-4.01c7.16.51,12.54,1.91,16.84,4.36,6.11,3.49,10.14,9.3,12.31,17.74.72,2.81,3.04,4.86,5.91,5.23.3.04.6.06.91.06,2.55,0,4.91-1.39,6.15-3.62,6.93-12.48,6.82-27.16-.31-39.27-7.69-13.07-22.88-21.42-41.81-23.04v-4.09c0-2.72-1.59-5.23-4.06-6.38-2.46-1.15-5.41-.77-7.5.98l-29.7,24.86c-1.67,1.4-2.59,3.45-2.52,5.62.07,2.18,1.12,4.16,2.87,5.45Zm15.57-6.04l12.17-10.18c1.22,2.16,3.52,3.57,6.13,3.57,17.2,0,30.58,5.98,36.71,16.4,1.37,2.33,2.35,4.86,2.91,7.49-3.42-3.66-7.52-6.58-12.25-8.72-9.17-4.14-18.98-4.7-27.38-4.7-3.06,0-5.68,1.97-6.64,4.71l-11.65-8.55Z"/>
      <path class="cls-1" d="m194.77,168.52c-3.45-.85-6.94-1.56-10.43-2.11,6.28-6.47,9.95-16.07,9.95-26.34,0-8.54-2.6-15.75-7.51-20.83-4.94-5.12-11.96-7.82-20.29-7.82s-15.35,2.7-20.29,7.82c-4.92,5.08-7.51,12.29-7.51,20.83,0,10.24,3.66,19.83,9.91,26.3-3.52.56-7.02,1.29-10.45,2.17-16.02,4.12-24.84,13.17-24.84,25.5v35.32c0,7.53,6.12,13.65,13.65,13.65h79.08c7.53,0,13.65-6.12,13.65-13.65v-35.31c0-12.29-9.08-21.59-24.9-25.52Zm-3.11,28.12c-3.88,0-7.04,3.16-7.04,7.04v25.25h-36.29v-25.25c0-3.88-3.16-7.04-7.04-7.04s-7.04,3.16-7.04,7.04v25.25h-6.9v-34.89c0-6.78,7.76-10.19,14.27-11.87,16.12-4.14,33-4.14,49.75.01,5.31,1.32,14.21,4.61,14.21,11.85v34.89h-6.9v-25.25c0-3.88-3.16-7.04-7.04-7.04Zm-25.18-36.32c-7.57,0-13.73-9.09-13.73-20.26,0-9.67,4.62-14.57,13.73-14.57s13.73,4.9,13.73,14.57c0,11.17-6.16,20.26-13.73,20.26Z"/>
      <path class="cls-1" d="m99.27,194.38l-29.7-21.79c-2.15-1.58-4.96-1.81-7.34-.6-2.38,1.21-3.86,3.61-3.86,6.28v4.01c-7.16-.51-12.54-1.91-16.84-4.36-6.11-3.49-10.14-9.3-12.31-17.74-.72-2.81-3.04-4.86-5.92-5.23-2.87-.36-5.64,1.03-7.05,3.56-6.93,12.48-6.82,27.16.31,39.27,7.69,13.07,22.88,21.42,41.81,23.04v4.09c0,2.72,1.59,5.23,4.06,6.38.94.44,1.94.66,2.98.66,1.65,0,3.25-.58,4.52-1.64l29.7-24.86c1.67-1.4,2.59-3.45,2.52-5.62-.07-2.18-1.12-4.16-2.87-5.45Zm-15.57,6.04l-12.17,10.18c-1.22-2.16-3.53-3.57-6.13-3.57-17.2,0-30.58-5.98-36.71-16.4-1.37-2.33-2.35-4.86-2.91-7.49,3.42,3.66,7.52,6.58,12.25,8.72,9.17,4.15,18.98,4.7,27.37,4.7,3.07,0,5.68-1.97,6.64-4.71l11.65,8.55Z"/>
      <path class="cls-1" d="m81.48,57.11c-3.45-.85-6.94-1.56-10.43-2.11,6.28-6.47,9.95-16.07,9.95-26.34,0-8.54-2.6-15.75-7.51-20.83-4.95-5.12-11.96-7.82-20.29-7.82s-15.35,2.7-20.29,7.82c-4.92,5.08-7.51,12.29-7.51,20.83,0,10.24,3.66,19.83,9.91,26.31-3.52.56-7.02,1.29-10.45,2.17C8.82,61.24,0,70.3,0,82.63v35.31c0,7.53,6.12,13.65,13.65,13.65h79.08c7.53,0,13.65-6.12,13.65-13.65v-35.31c0-12.29-9.08-21.59-24.9-25.52Zm-3.11,28.12c-3.88,0-7.04,3.16-7.04,7.04v25.25h-36.29v-25.25c0-3.88-3.16-7.04-7.04-7.04s-7.04,3.16-7.04,7.04v25.25h-6.9v-34.89c0-6.78,7.76-10.19,14.27-11.87,16.11-4.14,33-4.14,49.75.02,5.31,1.32,14.21,4.61,14.21,11.85v34.89h-6.9v-25.25c0-3.88-3.16-7.04-7.04-7.04Zm-25.18-36.32c-7.57,0-13.73-9.09-13.73-20.26,0-9.67,4.62-14.57,13.73-14.57s13.73,4.9,13.73,14.57c0,11.17-6.16,20.26-13.73,20.26Z"/>
    </g>
  </g>
</svg>