<?xml version="1.0" encoding="UTF-8"?>
<svg id="Layer_2" data-name="Layer 2" xmlns="http://www.w3.org/2000/svg" viewBox="0 0 249.69 247">
  <defs>
    <style>
      .cls-1 {
        fill: #fff;
      }
    </style>
  </defs>
  <g id="Layer_1-2" data-name="Layer 1">
    <g>
      <path class="cls-1" d="m124.84,113.12c24.6,0,44.62-20.02,44.62-44.62,0-24.59-20.02-44.59-44.62-44.59s-44.61,20-44.61,44.59,20.01,44.62,44.61,44.62Zm-32.69-44.62c0-18.01,14.66-32.67,32.69-32.67s32.7,14.65,32.7,32.67c0,18.03-14.67,32.7-32.7,32.7s-32.69-14.67-32.69-32.7Z"/>
      <path class="cls-1" d="m124.84,186.4l54.46-76.31c9.2-12.89,14.07-27.27,14.07-41.58,0-37.77-30.74-68.51-68.52-68.51S56.33,30.73,56.33,68.51c0,14.51,4.73,28.5,14.06,41.59l54.45,76.31Zm-56.58-117.89c0-31.2,25.38-56.58,56.58-56.58s56.59,25.38,56.59,56.58c0,11.99-3.98,23.65-11.84,34.65l-44.75,62.71-44.74-62.7c-7.86-11.03-11.85-22.69-11.85-34.66Z"/>
      <rect class="cls-1" x="92.05" y="193.8" width="65.61" height="11.93"/>
      <path class="cls-1" d="m36.89,139.25c-20.34,0-36.89,16.55-36.89,36.89,0,7.82,2.53,15.33,7.51,22.32l26.13,36.62h-14v11.93h34.51v-11.93h-14.01l26.13-36.62c4.92-6.89,7.51-14.6,7.51-22.32,0-9.84-3.84-19.1-10.82-26.08-6.98-6.97-16.24-10.82-26.08-10.82Zm24.97,36.89c0,5.29-1.78,10.47-5.29,15.39l-19.68,27.57-19.67-27.57c-3.51-4.93-5.29-10.11-5.29-15.39,0-13.77,11.2-24.97,24.96-24.97s24.97,11.2,24.97,24.97Z"/>
      <path class="cls-1" d="m36.89,156.25c-10.97,0-19.9,8.92-19.9,19.89s8.93,19.9,19.9,19.9,19.9-8.93,19.9-19.9c0-10.97-8.93-19.89-19.9-19.89Zm7.98,19.89c0,4.4-3.58,7.98-7.98,7.98s-7.97-3.58-7.97-7.98,3.58-7.97,7.97-7.97,7.98,3.57,7.98,7.97Z"/>
      <path class="cls-1" d="m249.69,176.14c0-20.34-16.55-36.89-36.89-36.89s-36.89,16.55-36.89,36.89c0,7.81,2.53,15.32,7.51,22.32l26.13,36.62h-14v11.93h34.5v-11.93h-14l26.13-36.62c4.92-6.89,7.51-14.6,7.51-22.32Zm-11.92,0c0,5.29-1.78,10.47-5.29,15.39l-19.67,27.57-19.67-27.56c-3.51-4.94-5.3-10.12-5.3-15.4,0-13.77,11.2-24.97,24.97-24.97s24.97,11.2,24.97,24.97Z"/>
      <path class="cls-1" d="m212.8,156.25c-10.97,0-19.9,8.92-19.9,19.89s8.93,19.9,19.9,19.9,19.9-8.93,19.9-19.9-8.93-19.89-19.9-19.89Zm7.98,19.89c0,4.4-3.58,7.98-7.98,7.98s-7.97-3.58-7.97-7.98,3.58-7.97,7.97-7.97,7.98,3.57,7.98,7.97Z"/>
    </g>
  </g>
</svg>