<?xml version="1.0" encoding="UTF-8"?>
<svg id="Layer_2" data-name="Layer 2" xmlns="http://www.w3.org/2000/svg" viewBox="0 0 240.77 258.24">
  <defs>
    <style>
      .cls-1 {
        fill: #fff;
      }
    </style>
  </defs>
  <g id="Layer_1-2" data-name="Layer 1">
    <g>
      <path class="cls-1" d="m192.44,120.83c6.74-27.26,1.41-56.48-15.17-79.81C158.72,15.17,129.77,0,97.74,0S35.92,15.46,17.37,42.15C-.89,68.57-5.11,102,6.41,131.51c3.09,8.15,7.87,16.02,14.05,23.32l70.81,83.18c1.69,1.97,3.93,3.09,6.46,3.09s4.78-1.12,6.46-3.09l8.43-9.84c12.65,17.98,33.72,30.07,57.61,30.07,38.78,0,70.53-31.75,70.53-70.53,0-30.91-20.23-57.32-48.33-66.88Zm-94.7,98.91l-64.35-75.59c-5.06-5.9-8.71-12.08-11.24-18.27-9.27-24.45-5.9-51.99,9.27-73.9,15.17-22.2,39.34-34.84,66.32-34.84s50.58,12.36,65.75,34c13.77,19.67,18.27,44.12,12.36,66.6-1.97-.28-3.65-.28-5.62-.28-13.21,0-25.29,3.65-35.97,9.84,6.74-8.15,10.68-18.55,10.68-29.79,0-26.13-21.08-47.21-47.21-47.21s-47.21,21.08-47.21,47.21,21.08,47.21,47.21,47.21c7.59,0,14.89-1.97,21.36-5.06-11.8,12.65-19.39,29.79-19.39,48.33,0,8.71,1.69,16.86,4.5,24.45l-6.46,7.31Zm0-91.89c-16.86,0-30.35-13.49-30.35-30.35s13.77-30.63,30.35-30.63,30.35,13.49,30.35,30.35-13.49,30.63-30.35,30.63Zm72.5,113.81c-29.51,0-53.67-24.17-53.67-53.67s24.17-53.67,53.67-53.67,53.67,24.17,53.67,53.67c0,29.51-23.89,53.67-53.67,53.67Z"/>
      <g>
        <path class="cls-1" d="m204.76,185.72c-.62-.85-15.49-20.88-34.57-20.88s-33.95,20.02-34.57,20.88c-.84,1.15-.84,2.69,0,3.84.62.85,15.47,20.88,34.57,20.88s33.95-20.02,34.57-20.88c.84-1.15.84-2.69,0-3.84Zm-6.8,1.92c-3.87,4.56-15.07,16.29-27.77,16.29s-23.89-11.73-27.77-16.29c3.87-4.56,15.07-16.29,27.77-16.29s23.89,11.73,27.77,16.29Z"/>
        <path class="cls-1" d="m170.19,173.11c-8.01,0-14.53,6.52-14.53,14.53s6.52,14.53,14.53,14.53,14.53-6.52,14.53-14.53-6.52-14.53-14.53-14.53Zm8.02,14.53c0,4.42-3.6,8.02-8.02,8.02s-8.02-3.6-8.02-8.02,3.6-8.02,8.02-8.02,8.02,3.6,8.02,8.02Z"/>
      </g>
    </g>
  </g>
</svg>