<svg width="490" height="490" viewBox="0 0 490 490" fill="none" xmlns="http://www.w3.org/2000/svg">
<g clip-path="url(#clip0_31_22)">
<path d="M177.8 238.1C177.8 242.6 174.2 246.2 169.7 246.2H139.3C134.8 246.2 131.2 242.6 131.2 238.1V207.7C131.2 203.2 134.8 199.6 139.3 199.6H169.7C174.2 199.6 177.8 203.2 177.8 207.7V238.1ZM241.3 207.8C241.3 203.3 237.7 199.7 233.2 199.7H202.8C198.3 199.7 194.7 203.3 194.7 207.8V238.2C194.7 242.7 198.3 246.3 202.8 246.3H233.2C237.7 246.3 241.3 242.7 241.3 238.2V207.8ZM304.8 207.8C304.8 203.3 301.2 199.7 296.7 199.7H266.3C261.8 199.7 258.2 203.3 258.2 207.8V238.2C258.2 242.7 261.8 246.3 266.3 246.3H296.7C301.2 246.3 304.8 242.7 304.8 238.2V207.8ZM177.8 269.6C177.8 265.1 174.2 261.5 169.7 261.5H139.3C134.8 261.5 131.2 265.1 131.2 269.6V300C131.2 304.5 134.8 308.1 139.3 308.1H169.7C174.2 308.1 177.8 304.5 177.8 300V269.6ZM241.3 269.6C241.3 265.1 237.7 261.5 233.2 261.5H202.8C198.3 261.5 194.7 265.1 194.7 269.6V300C194.7 304.5 198.3 308.1 202.8 308.1H233.2C237.7 308.1 241.3 304.5 241.3 300V269.6ZM296.7 261.5H266.3C261.8 261.5 258.2 265.1 258.2 269.6V300C258.2 304.5 261.8 308.1 266.3 308.1H296.7C301.2 308.1 304.8 304.5 304.8 300V269.6C304.8 265.1 301.2 261.5 296.7 261.5ZM106.1 323.3H75.8C71.3 323.3 67.7 326.9 67.7 331.4V361.8C67.7 366.3 71.3 369.9 75.8 369.9H106.2C110.7 369.9 114.3 366.3 114.3 361.8V331.4C114.3 326.9 110.6 323.3 106.1 323.3ZM114.3 269.6C114.3 265.1 110.7 261.5 106.2 261.5H75.8C71.3 261.5 67.7 265.1 67.7 269.6V300C67.7 304.5 71.3 308.1 75.8 308.1H106.2C110.7 308.1 114.3 304.5 114.3 300V269.6V269.6ZM233.2 323.3H202.8C198.3 323.3 194.7 326.9 194.7 331.4V361.8C194.7 366.3 198.3 369.9 202.8 369.9H233.2C237.7 369.9 241.3 366.3 241.3 361.8V331.4C241.3 326.9 237.7 323.3 233.2 323.3ZM169.7 323.3H139.3C134.8 323.3 131.2 326.9 131.2 331.4V361.8C131.2 366.3 134.8 369.9 139.3 369.9H169.7C174.2 369.9 177.8 366.3 177.8 361.8V331.4C177.8 326.9 174.2 323.3 169.7 323.3ZM360.2 246.3C364.7 246.3 368.3 242.7 368.3 238.2V207.8C368.3 203.3 364.7 199.7 360.2 199.7H329.8C325.3 199.7 321.7 203.3 321.7 207.8V238.2C321.7 242.7 325.3 246.3 329.8 246.3H360.2ZM47.7 435.9H278.4C274.7 424.3 272.6 411.9 272.5 399.1H47.7C41.7 399.1 36.9 394.2 36.9 388.3V171H398.6V272.1C411.4 272.2 423.8 274.1 435.4 277.8V94.9C435.4 68.6 414 47.2 387.7 47.2H334.3V17.8C334.3 8.20002 326.5 0.400024 316.9 0.400024H289.8C280.2 0.400024 272.4 8.20002 272.4 17.8V47.3H163V17.8C163 8.20002 155.2 0.400024 145.6 0.400024H118.5C108.9 0.400024 101.1 8.20002 101.1 17.8V47.3H47.7C21.4 47.3 0 68.7 0 95V388.3C0 414.5 21.4 435.9 47.7 435.9ZM489.2 397.7C489.2 448 448.4 488.8 398.1 488.8C347.8 488.8 307 448 307 397.7C307 347.4 347.8 306.6 398.1 306.6C448.4 306.6 489.2 347.4 489.2 397.7ZM444.1 374.1C444.1 371.2 443 368.4 440.9 366.4C436.6 362.1 429.7 362.1 425.4 366.4L385.8 406L370.6 390.8C366.3 386.5 359.4 386.5 355.1 390.8C353 392.9 351.9 395.6 351.9 398.5C351.9 401.4 353 404.2 355.1 406.2L378 429.1C382.3 433.4 389.2 433.4 393.5 429.1L440.8 381.8C443 379.8 444.1 377 444.1 374.1Z" fill="white"/>
</g>
<defs>
<clipPath id="clip0_31_22">
<rect width="489.2" height="489.2" fill="white"/>
</clipPath>
</defs>
</svg>
