<svg width="800" height="800" viewBox="0 0 800 800" fill="none" xmlns="http://www.w3.org/2000/svg">
<path d="M666.667 333.333V233.333C666.667 196.514 636.82 166.667 600 166.667H200C163.181 166.667 133.333 196.514 133.333 233.333V333.333M666.667 333.333V633.333C666.667 670.153 636.82 700 600 700H200C163.181 700 133.333 670.153 133.333 633.333V333.333M666.667 333.333H133.333M266.667 100V233.333M533.333 100V233.333" stroke="white" stroke-width="66.6667" stroke-linecap="round"/>
<path d="M566.667 466.668H466.667C448.257 466.668 433.333 481.592 433.333 500.001V600.001C433.333 618.411 448.257 633.335 466.667 633.335H566.667C585.076 633.335 600 618.411 600 600.001V500.001C600 481.592 585.076 466.668 566.667 466.668Z" fill="white"/>
</svg>
