<svg width="438" height="548" viewBox="0 0 438 548" fill="none" xmlns="http://www.w3.org/2000/svg">
<path d="M229.4 66.8001C229.4 65.2242 229.09 63.6638 228.487 62.2079C227.884 60.752 227 59.4291 225.885 58.3148C224.771 57.2005 223.448 56.3166 221.992 55.7136C220.536 55.1105 218.976 54.8001 217.4 54.8001H146.2C144.609 54.7442 143.024 55.0164 141.543 55.5997C140.061 56.183 138.716 57.0649 137.59 58.1905C136.465 59.3162 135.583 60.6614 135 62.1426C134.416 63.6238 134.144 65.2092 134.2 66.8001C134.2 69.9827 135.464 73.035 137.715 75.2854C139.965 77.5358 143.017 78.8001 146.2 78.8001H219C221.864 78.3327 224.473 76.8758 226.373 74.6832C228.273 72.4906 229.344 69.701 229.4 66.8001Z" fill="white"/>
<path d="M425.4 191.602H416.2C414.077 178.157 407.873 165.689 398.429 155.887C388.985 146.086 376.757 139.423 363.4 136.802V125.602C363.3 122.451 362.003 119.456 359.774 117.227C357.545 114.998 354.551 113.702 351.4 113.602C349.824 113.602 348.264 113.912 346.808 114.515C345.352 115.118 344.029 116.002 342.915 117.116C341.8 118.231 340.916 119.553 340.313 121.009C339.71 122.465 339.4 124.026 339.4 125.602V136.802C325.873 139.219 313.437 145.799 303.829 155.623C294.22 165.446 287.918 178.024 285.8 191.602H277.8C274.649 191.702 271.655 192.998 269.426 195.227C267.196 197.456 265.9 200.451 265.8 203.602C265.8 206.784 267.064 209.836 269.315 212.087C271.565 214.337 274.617 215.602 277.8 215.602H286.2C289.073 228.344 295.597 239.973 304.974 249.066C314.351 258.159 326.175 264.322 339 266.802V277.202C339 280.384 340.264 283.436 342.515 285.687C344.765 287.937 347.817 289.202 351 289.202C354.151 289.101 357.145 287.805 359.374 285.576C361.603 283.347 362.9 280.352 363 277.202V266.402C375.732 264.053 387.476 257.968 396.737 248.921C405.998 239.874 412.355 228.275 415 215.602H425C426.591 215.657 428.176 215.385 429.657 214.802C431.139 214.219 432.484 213.337 433.61 212.211C434.735 211.086 435.617 209.74 436.2 208.259C436.784 206.778 437.056 205.192 437 203.602C437.002 200.487 435.793 197.494 433.628 195.255C431.463 193.015 428.513 191.705 425.4 191.602ZM362.2 241.602C361.71 239.043 360.343 236.736 358.336 235.076C356.328 233.417 353.805 232.509 351.2 232.509C348.595 232.509 346.072 233.417 344.064 235.076C342.056 236.736 340.69 239.043 340.2 241.602C333.661 240.007 327.63 236.788 322.666 232.244C317.701 227.699 313.964 221.975 311.8 215.602C314.983 215.602 318.035 214.337 320.285 212.087C322.536 209.836 323.8 206.784 323.8 203.602C323.8 200.419 322.536 197.367 320.285 195.116C318.035 192.866 314.983 191.602 311.8 191.602C313.254 184.633 316.542 178.179 321.323 172.905C326.105 167.632 332.207 163.729 339 161.602C339.49 164.16 340.856 166.467 342.864 168.127C344.872 169.787 347.395 170.694 350 170.694C352.605 170.694 355.128 169.787 357.136 168.127C359.143 166.467 360.51 164.16 361 161.602C368.095 163.683 374.523 167.583 379.645 172.916C384.768 178.249 388.406 184.828 390.2 192.002C387.193 192.105 384.345 193.373 382.255 195.537C380.165 197.702 378.998 200.593 379 203.602C378.993 206.438 380.062 209.172 381.993 211.251C383.923 213.33 386.57 214.599 389.4 214.802C387.278 221.085 383.712 226.782 378.988 231.437C374.264 236.091 368.514 239.573 362.2 241.602Z" fill="white"/>
<path d="M351 307.202C349.409 307.146 347.824 307.418 346.343 308.001C344.861 308.585 343.516 309.466 342.39 310.592C341.265 311.718 340.383 313.063 339.8 314.544C339.216 316.025 338.944 317.611 339 319.202V490.002C339 498.807 335.502 507.251 329.276 513.478C323.05 519.704 314.605 523.202 305.8 523.202H59C50.1948 523.202 41.7502 519.704 35.524 513.478C29.2978 507.251 25.8 498.807 25.8 490.002V58.0017C25.8 49.1965 29.2978 40.7519 35.524 34.5257C41.7502 28.2995 50.1948 24.8017 59 24.8017H307C315.805 24.8017 324.25 28.2995 330.476 34.5257C336.702 40.7519 340.2 49.1965 340.2 58.0017V82.4017C340.2 85.5843 341.464 88.6365 343.715 90.8869C345.965 93.1374 349.017 94.4016 352.2 94.4016C355.351 94.3015 358.345 93.0051 360.574 90.776C362.803 88.5469 364.1 85.5525 364.2 82.4017V58.0017C364.2 42.8313 358.174 28.2822 347.446 17.5551C336.719 6.82806 322.17 0.801652 307 0.801652H59C51.388 0.641925 43.8207 2.00347 36.7418 4.80644C29.6629 7.60941 23.2147 11.7974 17.7755 17.1249C12.3362 22.4524 8.01528 28.8122 5.06596 35.8314C2.11664 42.8506 0.598301 50.388 0.599977 58.0017V490.002C0.598301 497.615 2.11664 505.153 5.06596 512.172C8.01528 519.191 12.3362 525.551 17.7755 530.878C23.2147 536.206 29.6629 540.394 36.7418 543.197C43.8207 546 51.388 547.361 59 547.202H307C322.17 547.202 336.719 541.175 347.446 530.448C358.174 519.721 364.2 505.172 364.2 490.002V319.202C364.208 317.52 363.863 315.854 363.186 314.314C362.51 312.774 361.517 311.394 360.272 310.262C359.028 309.131 357.559 308.273 355.961 307.746C354.364 307.219 352.674 307.033 351 307.202Z" fill="white"/>
<path d="M155.8 460.001C155.721 465.871 157.389 471.633 160.593 476.553C163.797 481.473 168.391 485.329 173.793 487.631C179.194 489.933 185.158 490.576 190.926 489.48C196.694 488.383 202.005 485.596 206.185 481.473C210.365 477.35 213.224 472.077 214.399 466.324C215.573 460.572 215.011 454.6 212.783 449.168C210.555 443.736 206.762 439.089 201.886 435.818C197.01 432.548 191.271 430.801 185.4 430.801C177.618 430.8 170.15 433.864 164.61 439.329C159.07 444.793 155.905 452.22 155.8 460.001ZM193.4 460.001C193.454 461.085 193.287 462.168 192.91 463.185C192.532 464.202 191.951 465.132 191.203 465.918C190.455 466.704 189.554 467.329 188.557 467.756C187.559 468.183 186.485 468.402 185.4 468.401C183.533 467.944 181.88 466.861 180.715 465.332C179.55 463.804 178.945 461.922 179 460.001C178.999 458.916 179.218 457.842 179.645 456.844C180.072 455.846 180.697 454.946 181.483 454.198C182.269 453.449 183.198 452.869 184.216 452.491C185.233 452.113 186.316 451.947 187.4 452.001C189.16 452.454 190.713 453.494 191.804 454.948C192.895 456.402 193.457 458.184 193.4 460.001Z" fill="white"/>
</svg>
