<svg width="800" height="800" viewBox="0 0 800 800" fill="none" xmlns="http://www.w3.org/2000/svg">
<path d="M666.667 333.333V233.333C666.667 196.514 636.82 166.667 600 166.667H200C163.181 166.667 133.333 196.514 133.333 233.333V333.333M666.667 333.333V633.333C666.667 670.153 636.82 700 600 700H200C163.181 700 133.333 670.153 133.333 633.333V333.333M666.667 333.333H133.333M266.667 100V233.333M533.333 100C533.333 100 533.333 181.263 533.333 233.333" stroke="white" stroke-width="66.6667" stroke-linecap="round"/>
<path d="M333.333 400H233.333C214.924 400 200 414.924 200 433.333V533.333C200 551.743 214.924 566.667 233.333 566.667H333.333C351.743 566.667 366.667 551.743 366.667 533.333V433.333C366.667 414.924 351.743 400 333.333 400Z" fill="white"/>
</svg>
